<svg width="501" height="761" viewBox="0 0 501 761" fill="none" xmlns="http://www.w3.org/2000/svg">
<path d="M65.5772 526.617H1V743.125H65.5772V526.617Z" stroke="#E8C183" stroke-opacity="0.05" stroke-width="0.75" stroke-miterlimit="10"/>
<path d="M53.8774 590.418H44.1426V598.48H53.8774V590.418Z" stroke="#E8C183" stroke-opacity="0.05" stroke-width="0.75" stroke-miterlimit="10"/>
<path d="M38.1586 590.418H28.4238V598.48H38.1586V590.418Z" stroke="#E8C183" stroke-opacity="0.05" stroke-width="0.75" stroke-miterlimit="10"/>
<path d="M22.4399 590.418H12.7051V598.48H22.4399V590.418Z" stroke="#E8C183" stroke-opacity="0.05" stroke-width="0.75" stroke-miterlimit="10"/>
<path d="M53.8793 573.107H44.1445V581.169H53.8793V573.107Z" stroke="#E8C183" stroke-opacity="0.05" stroke-width="0.75" stroke-miterlimit="10"/>
<path d="M38.1606 573.107H28.4258V581.169H38.1606V573.107Z" stroke="#E8C183" stroke-opacity="0.05" stroke-width="0.75" stroke-miterlimit="10"/>
<path d="M22.4399 573.107H12.7051V581.169H22.4399V573.107Z" stroke="#E8C183" stroke-opacity="0.05" stroke-width="0.75" stroke-miterlimit="10"/>
<path d="M53.8774 555.805H44.1426V563.866H53.8774V555.805Z" stroke="#E8C183" stroke-opacity="0.05" stroke-width="0.75" stroke-miterlimit="10"/>
<path d="M38.1586 555.805H28.4238V563.866H38.1586V555.805Z" stroke="#E8C183" stroke-opacity="0.05" stroke-width="0.75" stroke-miterlimit="10"/>
<path d="M22.4399 555.805H12.7051V563.866H22.4399V555.805Z" stroke="#E8C183" stroke-opacity="0.05" stroke-width="0.75" stroke-miterlimit="10"/>
<path d="M53.8774 538.498H44.1426V546.56H53.8774V538.498Z" stroke="#E8C183" stroke-opacity="0.05" stroke-width="0.75" stroke-miterlimit="10"/>
<path d="M38.1586 538.498H28.4238V546.56H38.1586V538.498Z" stroke="#E8C183" stroke-opacity="0.05" stroke-width="0.75" stroke-miterlimit="10"/>
<path d="M22.4399 538.498H12.7051V546.56H22.4399V538.498Z" stroke="#E8C183" stroke-opacity="0.05" stroke-width="0.75" stroke-miterlimit="10"/>
<path d="M53.8754 642.328H44.1406V650.39H53.8754V642.328Z" stroke="#E8C183" stroke-opacity="0.05" stroke-width="0.75" stroke-miterlimit="10"/>
<path d="M38.1567 642.328H28.4219V650.39H38.1567V642.328Z" stroke="#E8C183" stroke-opacity="0.05" stroke-width="0.75" stroke-miterlimit="10"/>
<path d="M22.4379 642.328H12.7031V650.39H22.4379V642.328Z" stroke="#E8C183" stroke-opacity="0.05" stroke-width="0.75" stroke-miterlimit="10"/>
<path d="M53.8754 625.027H44.1406V633.089H53.8754V625.027Z" stroke="#E8C183" stroke-opacity="0.05" stroke-width="0.75" stroke-miterlimit="10"/>
<path d="M38.1567 625.027H28.4219V633.089H38.1567V625.027Z" stroke="#E8C183" stroke-opacity="0.05" stroke-width="0.75" stroke-miterlimit="10"/>
<path d="M22.4379 625.027H12.7031V633.089H22.4379V625.027Z" stroke="#E8C183" stroke-opacity="0.05" stroke-width="0.75" stroke-miterlimit="10"/>
<path d="M53.8754 607.721H44.1406V615.782H53.8754V607.721Z" stroke="#E8C183" stroke-opacity="0.05" stroke-width="0.75" stroke-miterlimit="10"/>
<path d="M38.1567 607.721H28.4219V615.782H38.1567V607.721Z" stroke="#E8C183" stroke-opacity="0.05" stroke-width="0.75" stroke-miterlimit="10"/>
<path d="M22.4379 607.721H12.7031V615.782H22.4379V607.721Z" stroke="#E8C183" stroke-opacity="0.05" stroke-width="0.75" stroke-miterlimit="10"/>
<path d="M297.954 302.361H321.327L343.362 743.119H273.24L297.954 302.361Z" stroke="#E8C183" stroke-opacity="0.2" stroke-width="0.75" stroke-miterlimit="10"/>
<path d="M315.984 240.917H303.293L309.636 15.8633L315.984 240.917Z" stroke="#E8C183" stroke-opacity="0.2" stroke-width="0.75" stroke-miterlimit="10"/>
<path d="M326.001 144.751C326.001 149.547 318.527 153.437 309.304 153.437C300.085 153.437 292.611 149.552 292.611 144.751C292.611 139.951 300.085 136.066 309.304 136.066C318.527 136.066 326.001 139.956 326.001 144.751Z" stroke="#E8C183" stroke-opacity="0.2" stroke-width="0.75" stroke-miterlimit="10"/>
<path d="M319.324 231.568H298.625V267.632H319.324V231.568Z" stroke="#E8C183" stroke-opacity="0.2" stroke-width="0.75" stroke-miterlimit="10"/>
<path d="M330.673 253.613H289.275V272.311H330.673V253.613Z" stroke="#E8C183" stroke-opacity="0.2" stroke-width="0.75" stroke-miterlimit="10"/>
<path d="M346.704 310.37L322.376 323.366H296.774L273.24 310.37V280.318L289.274 266.797H330.675L346.704 280.318V310.37Z" stroke="#E8C183" stroke-opacity="0.2" stroke-width="0.75" stroke-miterlimit="10"/>
<path d="M346.704 283.344H273.24V306.967H346.704V283.344Z" stroke="#E8C183" stroke-opacity="0.2" stroke-width="0.75" stroke-miterlimit="10"/>
<path d="M346.704 292.822H273.24V297.963H346.704V292.822Z" stroke="#E8C183" stroke-opacity="0.2" stroke-width="0.75" stroke-miterlimit="10"/>
<path d="M469.25 67.0801H412.703V119.361H469.25V67.0801Z" stroke="#E8C183" stroke-opacity="0.2" stroke-width="0.75" stroke-miterlimit="10"/>
<path d="M424.44 659.256H368.961V2L424.44 67.0841V659.256Z" stroke="#E8C183" stroke-opacity="0.2" stroke-width="0.75" stroke-miterlimit="10"/>
<path d="M396.703 83.0938H368.961V99.0956H396.703V83.0938Z" stroke="#E8C183" stroke-opacity="0.2" stroke-width="0.75" stroke-miterlimit="10"/>
<path d="M396.703 602.152H368.961V618.15H396.703V602.152Z" stroke="#E8C183" stroke-opacity="0.2" stroke-width="0.75" stroke-miterlimit="10"/>
<path d="M396.703 99.0996H368.961V141.022H396.703V99.0996Z" stroke="#E8C183" stroke-opacity="0.2" stroke-width="0.75" stroke-miterlimit="10"/>
<path d="M396.703 141.018H368.961V182.94H396.703V141.018Z" stroke="#E8C183" stroke-opacity="0.2" stroke-width="0.75" stroke-miterlimit="10"/>
<path d="M396.703 182.938H368.961V224.86H396.703V182.938Z" stroke="#E8C183" stroke-opacity="0.2" stroke-width="0.75" stroke-miterlimit="10"/>
<path d="M396.703 224.855H368.961V266.778H396.703V224.855Z" stroke="#E8C183" stroke-opacity="0.2" stroke-width="0.75" stroke-miterlimit="10"/>
<path d="M396.703 266.781H368.961V308.699H396.703V266.781Z" stroke="#E8C183" stroke-opacity="0.2" stroke-width="0.75" stroke-miterlimit="10"/>
<path d="M396.703 308.699H368.961V350.626H396.703V308.699Z" stroke="#E8C183" stroke-opacity="0.2" stroke-width="0.75" stroke-miterlimit="10"/>
<path d="M396.703 350.623H368.961V392.55H396.703V350.623Z" stroke="#E8C183" stroke-opacity="0.2" stroke-width="0.75" stroke-miterlimit="10"/>
<path d="M396.703 392.553H368.961V434.471H396.703V392.553Z" stroke="#E8C183" stroke-opacity="0.2" stroke-width="0.75" stroke-miterlimit="10"/>
<path d="M396.703 434.467H368.961V476.394H396.703V434.467Z" stroke="#E8C183" stroke-opacity="0.2" stroke-width="0.75" stroke-miterlimit="10"/>
<path d="M396.703 476.393H368.961V518.311H396.703V476.393Z" stroke="#E8C183" stroke-opacity="0.2" stroke-width="0.75" stroke-miterlimit="10"/>
<path d="M396.703 518.307H368.961V560.234H396.703V518.307Z" stroke="#E8C183" stroke-opacity="0.2" stroke-width="0.75" stroke-miterlimit="10"/>
<path d="M396.703 560.234H368.961V602.152H396.703V560.234Z" stroke="#E8C183" stroke-opacity="0.2" stroke-width="0.75" stroke-miterlimit="10"/>
<path d="M499.727 112.469H424.441V141.014H499.727V112.469Z" stroke="#E8C183" stroke-opacity="0.2" stroke-width="0.75" stroke-miterlimit="10"/>
<path d="M499.727 141.014H424.441V169.559H499.727V141.014Z" stroke="#E8C183" stroke-opacity="0.2" stroke-width="0.75" stroke-miterlimit="10"/>
<path d="M499.727 169.557H424.441V198.102H499.727V169.557Z" stroke="#E8C183" stroke-opacity="0.2" stroke-width="0.75" stroke-miterlimit="10"/>
<path d="M499.727 198.111H424.441V226.656H499.727V198.111Z" stroke="#E8C183" stroke-opacity="0.2" stroke-width="0.75" stroke-miterlimit="10"/>
<path d="M499.727 226.656H424.441V255.201H499.727V226.656Z" stroke="#E8C183" stroke-opacity="0.2" stroke-width="0.75" stroke-miterlimit="10"/>
<path d="M499.727 255.201H424.441V283.742H499.727V255.201Z" stroke="#E8C183" stroke-opacity="0.2" stroke-width="0.75" stroke-miterlimit="10"/>
<path d="M499.727 283.74H424.441V327.332H499.727V283.74Z" stroke="#E8C183" stroke-opacity="0.2" stroke-width="0.75" stroke-miterlimit="10"/>
<path d="M424.44 327.326V380.791L396.703 398.736V624.161H368.961V744.164H396.703H499.73V624.161V327.326H424.44Z" stroke="#E8C183" stroke-opacity="0.2" stroke-width="0.75" stroke-miterlimit="10"/>
<path d="M424.437 417.932H420.301V438.568H424.437V417.932Z" stroke="#E8C183" stroke-opacity="0.2" stroke-width="0.75" stroke-miterlimit="10"/>
<path d="M449.951 417.932H445.814V438.568H449.951V417.932Z" stroke="#E8C183" stroke-opacity="0.2" stroke-width="0.75" stroke-miterlimit="10"/>
<path d="M475.46 417.932H471.324V438.568H475.46V417.932Z" stroke="#E8C183" stroke-opacity="0.2" stroke-width="0.75" stroke-miterlimit="10"/>
<path d="M424.437 455.752H420.301V476.388H424.437V455.752Z" stroke="#E8C183" stroke-opacity="0.2" stroke-width="0.75" stroke-miterlimit="10"/>
<path d="M449.949 455.752H445.812V476.388H449.949V455.752Z" stroke="#E8C183" stroke-opacity="0.2" stroke-width="0.75" stroke-miterlimit="10"/>
<path d="M475.464 455.752H471.328V476.388H475.464V455.752Z" stroke="#E8C183" stroke-opacity="0.2" stroke-width="0.75" stroke-miterlimit="10"/>
<path d="M424.437 493.572H420.301V514.208H424.437V493.572Z" stroke="#E8C183" stroke-opacity="0.2" stroke-width="0.75" stroke-miterlimit="10"/>
<path d="M449.951 493.572H445.814V514.208H449.951V493.572Z" stroke="#E8C183" stroke-opacity="0.2" stroke-width="0.75" stroke-miterlimit="10"/>
<path d="M475.464 493.572H471.328V514.208H475.464V493.572Z" stroke="#E8C183" stroke-opacity="0.2" stroke-width="0.75" stroke-miterlimit="10"/>
<path d="M424.437 531.389H420.301V552.025H424.437V531.389Z" stroke="#E8C183" stroke-opacity="0.2" stroke-width="0.75" stroke-miterlimit="10"/>
<path d="M449.951 531.389H445.814V552.025H449.951V531.389Z" stroke="#E8C183" stroke-opacity="0.2" stroke-width="0.75" stroke-miterlimit="10"/>
<path d="M475.464 531.389H471.328V552.025H475.464V531.389Z" stroke="#E8C183" stroke-opacity="0.2" stroke-width="0.75" stroke-miterlimit="10"/>
<path d="M424.437 569.201H420.301V589.837H424.437V569.201Z" stroke="#E8C183" stroke-opacity="0.2" stroke-width="0.75" stroke-miterlimit="10"/>
<path d="M449.949 569.201H445.812V589.837H449.949V569.201Z" stroke="#E8C183" stroke-opacity="0.2" stroke-width="0.75" stroke-miterlimit="10"/>
<path d="M475.464 569.201H471.328V589.837H475.464V569.201Z" stroke="#E8C183" stroke-opacity="0.2" stroke-width="0.75" stroke-miterlimit="10"/>
<path d="M424.437 607.023H420.301V627.659H424.437V607.023Z" stroke="#E8C183" stroke-opacity="0.2" stroke-width="0.75" stroke-miterlimit="10"/>
<path d="M449.949 607.023H445.812V627.659H449.949V607.023Z" stroke="#E8C183" stroke-opacity="0.2" stroke-width="0.75" stroke-miterlimit="10"/>
<path d="M475.464 607.023H471.328V627.659H475.464V607.023Z" stroke="#E8C183" stroke-opacity="0.2" stroke-width="0.75" stroke-miterlimit="10"/>
<path d="M424.437 644.838H420.301V665.474H424.437V644.838Z" stroke="#E8C183" stroke-opacity="0.2" stroke-width="0.75" stroke-miterlimit="10"/>
<path d="M449.949 644.838H445.812V665.474H449.949V644.838Z" stroke="#E8C183" stroke-opacity="0.2" stroke-width="0.75" stroke-miterlimit="10"/>
<path d="M475.464 644.838H471.328V665.474H475.464V644.838Z" stroke="#E8C183" stroke-opacity="0.2" stroke-width="0.75" stroke-miterlimit="10"/>
<path d="M173.45 142.297H169.547V217.564H173.45V142.297Z" stroke="#E8C183" stroke-opacity="0.1" stroke-width="0.75" stroke-miterlimit="10"/>
<path d="M180.193 258.269H162.805L165.622 203.629H177.891L180.193 258.269Z" stroke="#E8C183" stroke-opacity="0.1" stroke-width="0.75" stroke-miterlimit="10"/>
<path d="M173.454 258.269H169.547L171.503 203.629L173.454 258.269Z" stroke="#E8C183" stroke-opacity="0.1" stroke-width="0.75" stroke-miterlimit="10"/>
<path d="M210.112 247.504H132.902V284.927H210.112V247.504Z" stroke="#E8C183" stroke-opacity="0.1" stroke-width="0.75" stroke-miterlimit="10"/>
<path d="M219.763 266.215L171.026 256.117L122.285 266.215V743.118H219.763V266.215Z" stroke="#E8C183" stroke-opacity="0.1" stroke-width="0.75" stroke-miterlimit="10"/>
<path d="M122.285 693.991L171.026 256.117L219.763 693.991H122.285Z" stroke="#E8C183" stroke-opacity="0.1" stroke-width="0.75" stroke-miterlimit="10"/>
<path d="M219.763 699.727H122.285V705.59H219.763V699.727Z" stroke="#E8C183" stroke-opacity="0.1" stroke-width="0.75" stroke-miterlimit="10"/>
<path d="M219.763 711.449H122.285V717.313H219.763V711.449Z" stroke="#E8C183" stroke-opacity="0.1" stroke-width="0.75" stroke-miterlimit="10"/>
<path d="M219.763 723.16H122.285V729.024H219.763V723.16Z" stroke="#E8C183" stroke-opacity="0.1" stroke-width="0.75" stroke-miterlimit="10"/>
<path d="M219.763 734.871H122.285V740.734H219.763V734.871Z" stroke="#E8C183" stroke-opacity="0.1" stroke-width="0.75" stroke-miterlimit="10"/>
<path d="M125.276 597.057H58.375V743.128H125.276V597.057Z" stroke="#E8C183" stroke-opacity="0.05" stroke-width="0.75" stroke-miterlimit="10"/>
<path d="M75.1777 608.436H70.418V620.324H75.1777V608.436Z" stroke="#E8C183" stroke-opacity="0.05" stroke-width="0.75" stroke-miterlimit="10"/>
<path d="M87.8613 608.436H83.1016V620.324H87.8613V608.436Z" stroke="#E8C183" stroke-opacity="0.05" stroke-width="0.75" stroke-miterlimit="10"/>
<path d="M100.545 608.436H95.7852V620.324H100.545V608.436Z" stroke="#E8C183" stroke-opacity="0.05" stroke-width="0.75" stroke-miterlimit="10"/>
<path d="M113.24 608.436H108.48V620.324H113.24V608.436Z" stroke="#E8C183" stroke-opacity="0.05" stroke-width="0.75" stroke-miterlimit="10"/>
<path d="M75.1777 630.646H70.418V642.535H75.1777V630.646Z" stroke="#E8C183" stroke-opacity="0.05" stroke-width="0.75" stroke-miterlimit="10"/>
<path d="M87.8613 630.646H83.1016V642.535H87.8613V630.646Z" stroke="#E8C183" stroke-opacity="0.05" stroke-width="0.75" stroke-miterlimit="10"/>
<path d="M100.545 630.646H95.7852V642.535H100.545V630.646Z" stroke="#E8C183" stroke-opacity="0.05" stroke-width="0.75" stroke-miterlimit="10"/>
<path d="M113.24 630.646H108.48V642.535H113.24V630.646Z" stroke="#E8C183" stroke-opacity="0.05" stroke-width="0.75" stroke-miterlimit="10"/>
<path d="M75.1777 652.848H70.418V664.736H75.1777V652.848Z" stroke="#E8C183" stroke-opacity="0.05" stroke-width="0.75" stroke-miterlimit="10"/>
<path d="M87.8613 652.848H83.1016V664.736H87.8613V652.848Z" stroke="#E8C183" stroke-opacity="0.05" stroke-width="0.75" stroke-miterlimit="10"/>
<path d="M100.545 652.848H95.7852V664.736H100.545V652.848Z" stroke="#E8C183" stroke-opacity="0.05" stroke-width="0.75" stroke-miterlimit="10"/>
<path d="M113.24 652.848H108.48V664.736H113.24V652.848Z" stroke="#E8C183" stroke-opacity="0.05" stroke-width="0.75" stroke-miterlimit="10"/>
<path d="M75.1777 675.059H70.418V686.947H75.1777V675.059Z" stroke="#E8C183" stroke-opacity="0.05" stroke-width="0.75" stroke-miterlimit="10"/>
<path d="M87.8613 675.059H83.1016V686.947H87.8613V675.059Z" stroke="#E8C183" stroke-opacity="0.05" stroke-width="0.75" stroke-miterlimit="10"/>
<path d="M100.545 675.059H95.7852V686.947H100.545V675.059Z" stroke="#E8C183" stroke-opacity="0.05" stroke-width="0.75" stroke-miterlimit="10"/>
<path d="M113.24 675.059H108.48V686.947H113.24V675.059Z" stroke="#E8C183" stroke-opacity="0.05" stroke-width="0.75" stroke-miterlimit="10"/>
<path d="M75.1777 697.26H70.418V709.148H75.1777V697.26Z" stroke="#E8C183" stroke-opacity="0.05" stroke-width="0.75" stroke-miterlimit="10"/>
<path d="M87.8613 697.26H83.1016V709.148H87.8613V697.26Z" stroke="#E8C183" stroke-opacity="0.05" stroke-width="0.75" stroke-miterlimit="10"/>
<path d="M100.545 697.26H95.7852V709.148H100.545V697.26Z" stroke="#E8C183" stroke-opacity="0.05" stroke-width="0.75" stroke-miterlimit="10"/>
<path d="M113.24 697.26H108.48V709.148H113.24V697.26Z" stroke="#E8C183" stroke-opacity="0.05" stroke-width="0.75" stroke-miterlimit="10"/>
<path d="M75.1777 719.477H70.418V731.365H75.1777V719.477Z" stroke="#E8C183" stroke-opacity="0.05" stroke-width="0.75" stroke-miterlimit="10"/>
<path d="M87.8613 719.477H83.1016V731.365H87.8613V719.477Z" stroke="#E8C183" stroke-opacity="0.05" stroke-width="0.75" stroke-miterlimit="10"/>
<path d="M100.545 719.477H95.7852V731.365H100.545V719.477Z" stroke="#E8C183" stroke-opacity="0.05" stroke-width="0.75" stroke-miterlimit="10"/>
<path d="M113.24 719.477H108.48V731.365H113.24V719.477Z" stroke="#E8C183" stroke-opacity="0.05" stroke-width="0.75" stroke-miterlimit="10"/>
<path d="M293.349 532.383H216.412V743.126H293.349V532.383Z" stroke="#E8C183" stroke-opacity="0.17" stroke-width="0.75" stroke-miterlimit="10"/>
<path d="M241.641 558.881H238.074V572.366H241.641V558.881Z" stroke="#E8C183" stroke-opacity="0.17" stroke-width="0.75" stroke-miterlimit="10"/>
<path d="M251.654 558.881H248.088V572.366H251.654V558.881Z" stroke="#E8C183" stroke-opacity="0.17" stroke-width="0.75" stroke-miterlimit="10"/>
<path d="M261.672 558.881H258.105V572.366H261.672V558.881Z" stroke="#E8C183" stroke-opacity="0.17" stroke-width="0.75" stroke-miterlimit="10"/>
<path d="M271.688 558.881H268.121V572.366H271.688V558.881Z" stroke="#E8C183" stroke-opacity="0.17" stroke-width="0.75" stroke-miterlimit="10"/>
<path d="M241.641 580.293H238.074V593.769H241.641V580.293Z" stroke="#E8C183" stroke-opacity="0.17" stroke-width="0.75" stroke-miterlimit="10"/>
<path d="M251.654 580.293H248.088V593.769H251.654V580.293Z" stroke="#E8C183" stroke-opacity="0.17" stroke-width="0.75" stroke-miterlimit="10"/>
<path d="M261.672 580.293H258.105V593.769H261.672V580.293Z" stroke="#E8C183" stroke-opacity="0.17" stroke-width="0.75" stroke-miterlimit="10"/>
<path d="M271.688 580.293H268.121V593.769H271.688V580.293Z" stroke="#E8C183" stroke-opacity="0.17" stroke-width="0.75" stroke-miterlimit="10"/>
<path d="M241.641 601.699H238.074V615.184H241.641V601.699Z" stroke="#E8C183" stroke-opacity="0.17" stroke-width="0.75" stroke-miterlimit="10"/>
<path d="M251.652 601.699H248.086V615.184H251.652V601.699Z" stroke="#E8C183" stroke-opacity="0.17" stroke-width="0.75" stroke-miterlimit="10"/>
<path d="M261.672 601.699H258.105V615.184H261.672V601.699Z" stroke="#E8C183" stroke-opacity="0.17" stroke-width="0.75" stroke-miterlimit="10"/>
<path d="M271.688 601.699H268.121V615.184H271.688V601.699Z" stroke="#E8C183" stroke-opacity="0.17" stroke-width="0.75" stroke-miterlimit="10"/>
<path d="M241.641 623.115H238.074V636.591H241.641V623.115Z" stroke="#E8C183" stroke-opacity="0.17" stroke-width="0.75" stroke-miterlimit="10"/>
<path d="M251.652 623.115H248.086V636.591H251.652V623.115Z" stroke="#E8C183" stroke-opacity="0.17" stroke-width="0.75" stroke-miterlimit="10"/>
<path d="M261.672 623.115H258.105V636.591H261.672V623.115Z" stroke="#E8C183" stroke-opacity="0.17" stroke-width="0.75" stroke-miterlimit="10"/>
<path d="M271.688 623.115H268.121V636.591H271.688V623.115Z" stroke="#E8C183" stroke-opacity="0.17" stroke-width="0.75" stroke-miterlimit="10"/>
<path d="M241.641 644.518H238.074V658.003H241.641V644.518Z" stroke="#E8C183" stroke-opacity="0.17" stroke-width="0.75" stroke-miterlimit="10"/>
<path d="M251.652 644.518H248.086V658.003H251.652V644.518Z" stroke="#E8C183" stroke-opacity="0.17" stroke-width="0.75" stroke-miterlimit="10"/>
<path d="M261.672 644.52H258.105V658.005H261.672V644.52Z" stroke="#E8C183" stroke-opacity="0.17" stroke-width="0.75" stroke-miterlimit="10"/>
<path d="M271.688 644.52H268.121V658.005H271.688V644.52Z" stroke="#E8C183" stroke-opacity="0.17" stroke-width="0.75" stroke-miterlimit="10"/>
<path d="M241.641 665.934H238.074V679.41H241.641V665.934Z" stroke="#E8C183" stroke-opacity="0.17" stroke-width="0.75" stroke-miterlimit="10"/>
<path d="M251.652 665.934H248.086V679.41H251.652V665.934Z" stroke="#E8C183" stroke-opacity="0.17" stroke-width="0.75" stroke-miterlimit="10"/>
<path d="M261.672 665.934H258.105V679.41H261.672V665.934Z" stroke="#E8C183" stroke-opacity="0.17" stroke-width="0.75" stroke-miterlimit="10"/>
<path d="M271.688 665.934H268.121V679.41H271.688V665.934Z" stroke="#E8C183" stroke-opacity="0.17" stroke-width="0.75" stroke-miterlimit="10"/>
<path d="M241.641 687.342H238.074V700.827H241.641V687.342Z" stroke="#E8C183" stroke-opacity="0.17" stroke-width="0.75" stroke-miterlimit="10"/>
<path d="M251.652 687.342H248.086V700.827H251.652V687.342Z" stroke="#E8C183" stroke-opacity="0.17" stroke-width="0.75" stroke-miterlimit="10"/>
<path d="M261.672 687.342H258.105V700.827H261.672V687.342Z" stroke="#E8C183" stroke-opacity="0.17" stroke-width="0.75" stroke-miterlimit="10"/>
<path d="M271.688 687.342H268.121V700.827H271.688V687.342Z" stroke="#E8C183" stroke-opacity="0.17" stroke-width="0.75" stroke-miterlimit="10"/>
</svg>
