<svg width="655" height="798" viewBox="0 0 655 798" fill="none" xmlns="http://www.w3.org/2000/svg">
<path d="M633.202 561.5H336.77V584.034H633.202V561.5Z" stroke="#E8C183" stroke-opacity="0.1" stroke-width="0.75" stroke-miterlimit="10"/>
<path d="M349.26 630.656H332.691V796.995H349.26V630.656Z" stroke="#E8C183" stroke-opacity="0.1" stroke-width="0.75" stroke-miterlimit="10"/>
<path d="M350.337 635.809C350.337 636.856 349.642 637.714 348.796 637.714H333.143C332.285 637.714 331.602 636.856 331.602 635.809C331.602 634.765 332.285 633.902 333.143 633.902H348.796C349.654 633.902 350.337 634.765 350.337 635.809Z" stroke="#E8C183" stroke-opacity="0.1" stroke-width="0.75" stroke-miterlimit="10"/>
<path d="M352.249 632.913C352.249 634.508 351.194 635.806 349.897 635.806H332.042C330.744 635.806 329.701 634.508 329.701 632.913C329.701 631.318 330.744 630.02 332.042 630.02H349.897C351.194 630.024 352.249 631.318 352.249 632.913Z" stroke="#E8C183" stroke-opacity="0.1" stroke-width="0.75" stroke-miterlimit="10"/>
<path d="M350.337 791.219C350.337 790.168 349.642 789.312 348.796 789.312H333.143C332.285 789.312 331.602 790.168 331.602 791.219C331.602 792.263 332.285 793.117 333.143 793.117H348.796C349.654 793.117 350.337 792.263 350.337 791.219Z" stroke="#E8C183" stroke-opacity="0.1" stroke-width="0.75" stroke-miterlimit="10"/>
<path d="M352.249 794.107C352.249 792.505 351.194 791.215 349.897 791.215H332.042C330.744 791.215 329.701 792.505 329.701 794.107C329.701 795.702 330.744 796.993 332.042 796.993H349.897C351.194 796.993 352.249 795.702 352.249 794.107Z" stroke="#E8C183" stroke-opacity="0.1" stroke-width="0.75" stroke-miterlimit="10"/>
<path d="M337.453 641.293H336.098V784.078H337.453V641.293Z" stroke="#E8C183" stroke-opacity="0.1" stroke-width="0.75" stroke-miterlimit="10"/>
<path d="M341.647 641.293H340.303V784.078H341.647V641.293Z" stroke="#E8C183" stroke-opacity="0.1" stroke-width="0.75" stroke-miterlimit="10"/>
<path d="M345.83 641.293H344.486V784.078H345.83V641.293Z" stroke="#E8C183" stroke-opacity="0.1" stroke-width="0.75" stroke-miterlimit="10"/>
<path d="M406.87 630.656H390.301V796.995H406.87V630.656Z" stroke="#E8C183" stroke-opacity="0.1" stroke-width="0.75" stroke-miterlimit="10"/>
<path d="M407.947 635.809C407.947 636.856 407.263 637.714 406.406 637.714H390.752C389.906 637.714 389.211 636.856 389.211 635.809C389.211 634.765 389.906 633.902 390.752 633.902H406.406C407.263 633.902 407.947 634.765 407.947 635.809Z" stroke="#E8C183" stroke-opacity="0.1" stroke-width="0.75" stroke-miterlimit="10"/>
<path d="M409.847 632.913C409.847 634.508 408.804 635.806 407.506 635.806H389.651C388.353 635.806 387.299 634.508 387.299 632.913C387.299 631.318 388.353 630.02 389.651 630.02H407.506C408.804 630.024 409.847 631.318 409.847 632.913Z" stroke="#E8C183" stroke-opacity="0.1" stroke-width="0.75" stroke-miterlimit="10"/>
<path d="M407.947 791.219C407.947 790.168 407.263 789.312 406.406 789.312H390.752C389.906 789.312 389.211 790.168 389.211 791.219C389.211 792.263 389.906 793.117 390.752 793.117H406.406C407.263 793.117 407.947 792.263 407.947 791.219Z" stroke="#E8C183" stroke-opacity="0.1" stroke-width="0.75" stroke-miterlimit="10"/>
<path d="M409.847 794.107C409.847 792.505 408.804 791.215 407.506 791.215H389.651C388.353 791.215 387.299 792.505 387.299 794.107C387.299 795.702 388.353 796.993 389.651 796.993H407.506C408.804 796.993 409.847 795.702 409.847 794.107Z" stroke="#E8C183" stroke-opacity="0.1" stroke-width="0.75" stroke-miterlimit="10"/>
<path d="M395.063 641.293H393.719V784.078H395.063V641.293Z" stroke="#E8C183" stroke-opacity="0.1" stroke-width="0.75" stroke-miterlimit="10"/>
<path d="M399.256 641.293H397.9V784.078H399.256V641.293Z" stroke="#E8C183" stroke-opacity="0.1" stroke-width="0.75" stroke-miterlimit="10"/>
<path d="M403.449 641.293H402.094V784.078H403.449V641.293Z" stroke="#E8C183" stroke-opacity="0.1" stroke-width="0.75" stroke-miterlimit="10"/>
<path d="M464.477 630.656H447.908V796.995H464.477V630.656Z" stroke="#E8C183" stroke-opacity="0.1" stroke-width="0.75" stroke-miterlimit="10"/>
<path d="M465.554 635.809C465.554 636.856 464.87 637.714 464.013 637.714H448.359C447.514 637.714 446.818 636.856 446.818 635.809C446.818 634.765 447.514 633.902 448.359 633.902H464.013C464.87 633.902 465.554 634.765 465.554 635.809Z" stroke="#E8C183" stroke-opacity="0.1" stroke-width="0.75" stroke-miterlimit="10"/>
<path d="M467.454 632.913C467.454 634.508 466.411 635.806 465.113 635.806H447.247C445.961 635.806 444.906 634.508 444.906 632.913C444.906 631.318 445.961 630.02 447.247 630.02H465.113C466.411 630.024 467.454 631.318 467.454 632.913Z" stroke="#E8C183" stroke-opacity="0.1" stroke-width="0.75" stroke-miterlimit="10"/>
<path d="M465.554 791.219C465.554 790.168 464.87 789.312 464.013 789.312H448.359C447.514 789.312 446.818 790.168 446.818 791.219C446.818 792.263 447.514 793.117 448.359 793.117H464.013C464.87 793.117 465.554 792.263 465.554 791.219Z" stroke="#E8C183" stroke-opacity="0.1" stroke-width="0.75" stroke-miterlimit="10"/>
<path d="M467.456 794.107C467.456 792.505 466.413 791.215 465.115 791.215H447.249C445.963 791.215 444.908 792.505 444.908 794.107C444.908 795.702 445.963 796.993 447.249 796.993H465.115C466.413 796.993 467.456 795.702 467.456 794.107Z" stroke="#E8C183" stroke-opacity="0.1" stroke-width="0.75" stroke-miterlimit="10"/>
<path d="M452.67 641.293H451.326V784.078H452.67V641.293Z" stroke="#E8C183" stroke-opacity="0.1" stroke-width="0.75" stroke-miterlimit="10"/>
<path d="M456.866 641.293H455.521V784.078H456.866V641.293Z" stroke="#E8C183" stroke-opacity="0.1" stroke-width="0.75" stroke-miterlimit="10"/>
<path d="M461.047 641.293H459.703V784.078H461.047V641.293Z" stroke="#E8C183" stroke-opacity="0.1" stroke-width="0.75" stroke-miterlimit="10"/>
<path d="M522.087 630.658H505.518V796.997H522.087V630.658Z" stroke="#E8C183" stroke-opacity="0.1" stroke-width="0.75" stroke-miterlimit="10"/>
<path d="M523.175 635.809C523.175 636.856 522.48 637.714 521.622 637.714H505.969C505.123 637.714 504.428 636.856 504.428 635.809C504.428 634.765 505.123 633.902 505.969 633.902H521.622C522.48 633.902 523.175 634.765 523.175 635.809Z" stroke="#E8C183" stroke-opacity="0.1" stroke-width="0.75" stroke-miterlimit="10"/>
<path d="M525.075 632.913C525.075 634.508 524.02 635.806 522.723 635.806H504.868C503.57 635.806 502.516 634.508 502.516 632.913C502.516 631.318 503.57 630.02 504.868 630.02H522.723C524.02 630.024 525.075 631.318 525.075 632.913Z" stroke="#E8C183" stroke-opacity="0.1" stroke-width="0.75" stroke-miterlimit="10"/>
<path d="M523.175 791.219C523.175 790.168 522.48 789.312 521.622 789.312H505.969C505.123 789.312 504.428 790.168 504.428 791.219C504.428 792.263 505.123 793.117 505.969 793.117H521.622C522.48 793.117 523.175 792.263 523.175 791.219Z" stroke="#E8C183" stroke-opacity="0.1" stroke-width="0.75" stroke-miterlimit="10"/>
<path d="M525.075 794.107C525.075 792.505 524.02 791.215 522.723 791.215H504.868C503.57 791.215 502.516 792.505 502.516 794.107C502.516 795.702 503.57 796.993 504.868 796.993H522.723C524.02 796.993 525.075 795.702 525.075 794.107Z" stroke="#E8C183" stroke-opacity="0.1" stroke-width="0.75" stroke-miterlimit="10"/>
<path d="M510.279 641.293H508.936V784.078H510.279V641.293Z" stroke="#E8C183" stroke-opacity="0.1" stroke-width="0.75" stroke-miterlimit="10"/>
<path d="M514.473 641.293H513.117V784.078H514.473V641.293Z" stroke="#E8C183" stroke-opacity="0.1" stroke-width="0.75" stroke-miterlimit="10"/>
<path d="M518.668 641.293H517.312V784.078H518.668V641.293Z" stroke="#E8C183" stroke-opacity="0.1" stroke-width="0.75" stroke-miterlimit="10"/>
<path d="M579.694 630.656H563.125V796.995H579.694V630.656Z" stroke="#E8C183" stroke-opacity="0.1" stroke-width="0.75" stroke-miterlimit="10"/>
<path d="M580.773 635.809C580.773 636.856 580.089 637.714 579.232 637.714H563.578C562.732 637.714 562.037 636.856 562.037 635.809C562.037 634.765 562.732 633.902 563.578 633.902H579.232C580.089 633.902 580.773 634.765 580.773 635.809Z" stroke="#E8C183" stroke-opacity="0.1" stroke-width="0.75" stroke-miterlimit="10"/>
<path d="M582.684 632.913C582.684 634.508 581.63 635.806 580.332 635.806H562.477C561.179 635.806 560.125 634.508 560.125 632.913C560.125 631.318 561.179 630.02 562.477 630.02H580.332C581.63 630.024 582.684 631.318 582.684 632.913Z" stroke="#E8C183" stroke-opacity="0.1" stroke-width="0.75" stroke-miterlimit="10"/>
<path d="M580.773 791.219C580.773 790.168 580.089 789.312 579.232 789.312H563.578C562.732 789.312 562.037 790.168 562.037 791.219C562.037 792.263 562.732 793.117 563.578 793.117H579.232C580.089 793.117 580.773 792.263 580.773 791.219Z" stroke="#E8C183" stroke-opacity="0.1" stroke-width="0.75" stroke-miterlimit="10"/>
<path d="M582.684 794.107C582.684 792.505 581.63 791.215 580.332 791.215H562.477C561.179 791.215 560.125 792.505 560.125 794.107C560.125 795.702 561.179 796.993 562.477 796.993H580.332C581.63 796.993 582.684 795.702 582.684 794.107Z" stroke="#E8C183" stroke-opacity="0.1" stroke-width="0.75" stroke-miterlimit="10"/>
<path d="M567.887 641.293H566.531V784.078H567.887V641.293Z" stroke="#E8C183" stroke-opacity="0.1" stroke-width="0.75" stroke-miterlimit="10"/>
<path d="M572.082 641.293H570.738V784.078H572.082V641.293Z" stroke="#E8C183" stroke-opacity="0.1" stroke-width="0.75" stroke-miterlimit="10"/>
<path d="M576.266 641.293H574.934V784.078H576.266V641.293Z" stroke="#E8C183" stroke-opacity="0.1" stroke-width="0.75" stroke-miterlimit="10"/>
<path d="M637.303 630.656H620.734V796.995H637.303V630.656Z" stroke="#E8C183" stroke-opacity="0.1" stroke-width="0.75" stroke-miterlimit="10"/>
<path d="M638.394 635.809C638.394 636.856 637.698 637.714 636.841 637.714H621.199C620.342 637.714 619.646 636.856 619.646 635.809C619.646 634.765 620.342 633.902 621.199 633.902H636.841C637.698 633.902 638.394 634.765 638.394 635.809Z" stroke="#E8C183" stroke-opacity="0.1" stroke-width="0.75" stroke-miterlimit="10"/>
<path d="M640.294 632.913C640.294 634.508 639.251 635.806 637.953 635.806H620.087C618.789 635.806 617.746 634.508 617.746 632.913C617.746 631.318 618.789 630.02 620.087 630.02H637.953C639.251 630.024 640.294 631.318 640.294 632.913Z" stroke="#E8C183" stroke-opacity="0.1" stroke-width="0.75" stroke-miterlimit="10"/>
<path d="M638.394 791.219C638.394 790.168 637.698 789.312 636.841 789.312H621.199C620.342 789.312 619.646 790.168 619.646 791.219C619.646 792.263 620.342 793.117 621.199 793.117H636.841C637.698 793.117 638.394 792.263 638.394 791.219Z" stroke="#E8C183" stroke-opacity="0.1" stroke-width="0.75" stroke-miterlimit="10"/>
<path d="M640.294 794.107C640.294 792.505 639.251 791.215 637.953 791.215H620.087C618.789 791.215 617.746 792.505 617.746 794.107C617.746 795.702 618.789 796.993 620.087 796.993H637.953C639.251 796.993 640.294 795.702 640.294 794.107Z" stroke="#E8C183" stroke-opacity="0.1" stroke-width="0.75" stroke-miterlimit="10"/>
<path d="M625.496 641.293H624.152V784.078H625.496V641.293Z" stroke="#E8C183" stroke-opacity="0.1" stroke-width="0.75" stroke-miterlimit="10"/>
<path d="M629.692 641.293H628.348V784.078H629.692V641.293Z" stroke="#E8C183" stroke-opacity="0.1" stroke-width="0.75" stroke-miterlimit="10"/>
<path d="M633.885 641.293H632.541V784.078H633.885V641.293Z" stroke="#E8C183" stroke-opacity="0.1" stroke-width="0.75" stroke-miterlimit="10"/>
<path d="M637.501 602.506H332.494V622.085H637.501V602.506Z" stroke="#E8C183" stroke-opacity="0.1" stroke-width="0.75" stroke-miterlimit="10"/>
<path d="M341.451 602.506H332.494V622.085H341.451V602.506Z" stroke="#E8C183" stroke-opacity="0.1" stroke-width="0.75" stroke-miterlimit="10"/>
<path d="M637.501 602.506H628.545V622.085H637.501V602.506Z" stroke="#E8C183" stroke-opacity="0.1" stroke-width="0.75" stroke-miterlimit="10"/>
<path d="M360.453 602.506H353.57V622.085H360.453V602.506Z" stroke="#E8C183" stroke-opacity="0.1" stroke-width="0.75" stroke-miterlimit="10"/>
<path d="M378.713 602.506H371.83V622.085H378.713V602.506Z" stroke="#E8C183" stroke-opacity="0.1" stroke-width="0.75" stroke-miterlimit="10"/>
<path d="M396.986 602.506H390.104V622.085H396.986V602.506Z" stroke="#E8C183" stroke-opacity="0.1" stroke-width="0.75" stroke-miterlimit="10"/>
<path d="M415.246 602.506H408.363V622.085H415.246V602.506Z" stroke="#E8C183" stroke-opacity="0.1" stroke-width="0.75" stroke-miterlimit="10"/>
<path d="M433.517 602.506H426.635V622.085H433.517V602.506Z" stroke="#E8C183" stroke-opacity="0.1" stroke-width="0.75" stroke-miterlimit="10"/>
<path d="M451.777 602.506H444.906V622.085H451.777V602.506Z" stroke="#E8C183" stroke-opacity="0.1" stroke-width="0.75" stroke-miterlimit="10"/>
<path d="M470.05 602.506H463.18V622.085H470.05V602.506Z" stroke="#E8C183" stroke-opacity="0.1" stroke-width="0.75" stroke-miterlimit="10"/>
<path d="M488.322 602.506H481.439V622.085H488.322V602.506Z" stroke="#E8C183" stroke-opacity="0.1" stroke-width="0.75" stroke-miterlimit="10"/>
<path d="M506.584 602.506H499.701V622.085H506.584V602.506Z" stroke="#E8C183" stroke-opacity="0.1" stroke-width="0.75" stroke-miterlimit="10"/>
<path d="M524.855 602.506H517.973V622.085H524.855V602.506Z" stroke="#E8C183" stroke-opacity="0.1" stroke-width="0.75" stroke-miterlimit="10"/>
<path d="M543.117 602.506H536.234V622.085H543.117V602.506Z" stroke="#E8C183" stroke-opacity="0.1" stroke-width="0.75" stroke-miterlimit="10"/>
<path d="M561.388 602.506H554.506V622.085H561.388V602.506Z" stroke="#E8C183" stroke-opacity="0.1" stroke-width="0.75" stroke-miterlimit="10"/>
<path d="M579.648 602.506H572.766V622.085H579.648V602.506Z" stroke="#E8C183" stroke-opacity="0.1" stroke-width="0.75" stroke-miterlimit="10"/>
<path d="M597.921 602.506H591.039V622.085H597.921V602.506Z" stroke="#E8C183" stroke-opacity="0.1" stroke-width="0.75" stroke-miterlimit="10"/>
<path d="M616.181 602.506H609.311V622.085H616.181V602.506Z" stroke="#E8C183" stroke-opacity="0.1" stroke-width="0.75" stroke-miterlimit="10"/>
<path d="M637.629 622.088H332.367V630.03H637.629V622.088Z" stroke="#E8C183" stroke-opacity="0.1" stroke-width="0.75" stroke-miterlimit="10"/>
<path d="M648.613 593.93H321.371V604.708H648.613V593.93Z" stroke="#E8C183" stroke-opacity="0.1" stroke-width="0.75" stroke-miterlimit="10"/>
<path d="M654 588.775H315.982L321.37 593.93H648.612L654 588.775Z" stroke="#E8C183" stroke-opacity="0.1" stroke-width="0.75" stroke-miterlimit="10"/>
<path d="M638.011 584.035H331.984V588.778H638.011V584.035Z" stroke="#E8C183" stroke-opacity="0.1" stroke-width="0.75" stroke-miterlimit="10"/>
<path d="M644.662 553.369H325.322V561.502H644.662V553.369Z" stroke="#E8C183" stroke-opacity="0.1" stroke-width="0.75" stroke-miterlimit="10"/>
<path d="M528.54 547.088H441.443V553.364H528.54V547.088Z" stroke="#E8C183" stroke-opacity="0.1" stroke-width="0.75" stroke-miterlimit="10"/>
<path d="M533.927 553.369H436.055V561.502H533.927V553.369Z" stroke="#E8C183" stroke-opacity="0.1" stroke-width="0.75" stroke-miterlimit="10"/>
<path d="M548.748 565.193H421.248V566.678H548.748V565.193Z" stroke="#E8C183" stroke-opacity="0.1" stroke-width="0.75" stroke-miterlimit="10"/>
<path d="M558.062 569.883H411.932V571.359H558.062V569.883Z" stroke="#E8C183" stroke-opacity="0.1" stroke-width="0.75" stroke-miterlimit="10"/>
<path d="M580.112 574.557H389.871V576.034H580.112V574.557Z" stroke="#E8C183" stroke-opacity="0.1" stroke-width="0.75" stroke-miterlimit="10"/>
<path d="M594.329 579.238H375.654V580.714H594.329V579.238Z" stroke="#E8C183" stroke-opacity="0.1" stroke-width="0.75" stroke-miterlimit="10"/>
<path d="M528.053 561.5H441.93V588.775H528.053V561.5Z" stroke="#E8C183" stroke-opacity="0.1" stroke-width="0.75" stroke-miterlimit="10"/>
<path d="M522.086 563.994H447.908V584.032H522.086V563.994Z" stroke="#E8C183" stroke-opacity="0.1" stroke-width="0.75" stroke-miterlimit="10"/>
<path d="M522.701 510.651C519.781 510.484 517.498 511.565 516.34 514.835C515.992 515.833 515.563 516.824 515.366 517.876C514.671 521.556 513.142 523.856 509.782 523.427C509.446 523.389 509.086 523.582 508.739 523.681C506.723 524.248 505.703 525.515 505.738 528.055C505.773 529.661 506.074 531.366 506.63 532.819C507.418 534.912 508.229 536.875 507.441 539.225C506.456 542.152 506.943 544.597 508.994 546.548C509.028 546.578 508.959 546.791 508.913 546.97C507.186 546.97 505.437 546.97 503.571 546.97C503.351 539.168 503.142 531.479 502.934 523.901C501.949 523.537 500.906 523.514 500.373 522.857C499.759 522.116 499.354 520.826 499.307 519.741C499.238 518.002 499.527 516.237 499.69 514.479C500.118 509.644 499.805 509.125 495.947 508.465C495.785 505.901 495.715 503.286 495.449 500.7C495.322 499.527 495.043 498.179 494.453 497.34C493.827 496.477 492.726 495.708 491.822 495.692C490.617 495.681 490.49 497.138 490.397 498.471C490.362 498.969 489.644 499.394 489.227 499.853C488.949 499.159 488.451 498.478 488.439 497.78C488.427 497.15 488.96 496.512 489.239 495.874C490.131 493.854 489.725 492.895 487.86 492.739C486.724 492.643 485.554 492.716 484.372 492.716C484.152 489.985 483.793 487.773 486.632 486.28C489.992 484.515 489.783 479.264 486.632 476.758C486.133 476.368 485.635 476.003 484.87 475.414C488.567 474.556 490.038 470.987 492.124 468.353C492.448 467.942 492.564 467.16 492.599 466.533C492.657 465.391 492.147 464.821 491.266 465.368C488.984 466.792 486.736 468.311 484.882 469.533C484.534 468.986 484.094 467.593 483.445 467.421C481.765 466.982 481.962 468.793 481.974 469.56C479.992 468.25 477.93 466.841 475.821 465.546C475.381 465.273 474.755 465.418 474.211 465.365C474.199 466.06 474.118 466.754 474.176 467.437C474.211 467.836 474.408 468.303 474.651 468.58C476.725 470.907 478.023 474.4 481.14 475.156C481.232 475.179 481.29 475.498 481.406 475.786C479.158 477.031 477.327 478.755 477.582 482.112C477.837 485.434 479.865 486.789 482.217 487.658C482.217 489.751 482.287 491.789 482.205 493.809C482.147 495.119 481.626 495.612 480.421 495.282C478.324 494.72 477.015 495.94 477.049 498.558C477.084 501.945 477.42 505.321 477.664 508.696C477.791 510.651 478.046 512.588 478.115 514.546C478.127 515.154 477.837 515.978 477.467 516.357C476.447 517.394 475.288 518.24 473.782 519.5C474.095 517.678 474.361 516.372 474.547 515.055C474.883 512.717 473.851 510.64 472.276 510.347C470.781 510.071 469.309 511.574 468.985 513.784C468.892 514.497 469.008 515.248 468.916 515.962C468.441 519.395 468.684 522.997 466.54 525.974C465.787 527.022 465.695 529.095 465.764 530.671C465.822 532.3 466.529 533.867 466.784 535.501C467.375 539.255 467.861 543.028 468.394 546.943C465.66 546.943 463.227 546.943 460.515 546.943C461.095 546.176 461.616 545.729 461.836 545.121C462.265 543.864 463.029 542.33 462.763 541.233C461.94 537.786 462.079 534.684 463.783 531.734C463.945 531.442 464.026 531.073 464.107 530.724C464.988 527.091 463.806 523.768 460.967 523.693C456.692 523.575 455.012 520.678 454.108 516.239C453.957 515.473 453.644 514.748 453.355 514.038C452.3 511.471 450.446 510.248 448.129 510.553C447.608 510.617 447.086 510.803 446.576 510.803C445.406 510.776 445.267 511.354 445.453 512.71C445.754 514.831 445.939 517.029 445.847 519.167C445.707 522.394 446.333 523.366 449.183 523.176C447.561 525.675 447.55 528.264 448.326 531.073C448.5 531.726 447.839 532.755 447.527 533.594C447.237 534.335 446.623 535.056 446.634 535.77C446.669 538.31 446.773 540.869 447.179 543.336C447.283 544.054 448.5 544.487 449.207 545.049C449.473 544.123 449.844 543.219 449.948 542.262C449.995 541.795 449.508 541.268 449.323 540.736C448.743 539.054 448.291 536.988 449.693 535.99C450.945 535.109 452.683 535.196 454.201 534.98C454.363 534.965 454.722 535.846 454.78 536.339C455.023 538.484 455.208 540.644 455.371 542.805C455.591 545.679 454.548 547.092 452.219 547.092H517.823C515.204 547.092 514.254 545.759 514.567 542.578C514.741 540.706 514.833 538.826 515.054 536.965C515.135 536.313 515.505 535.159 515.691 535.178C517.209 535.318 518.97 535.193 520.186 536.107C521.588 537.163 521.171 539.308 520.488 541.055C520.395 541.313 520.175 541.548 520.163 541.814C520.105 542.764 520.001 543.758 520.163 544.666C520.221 544.962 521.276 545.371 521.461 545.167C522.029 544.552 522.596 543.716 522.759 542.854C523.095 541.096 523.176 539.267 523.35 537.463C523.512 535.88 523.419 534.483 522.168 533.427C521.751 533.078 521.426 531.871 521.588 531.27C522.33 528.503 522.457 525.887 520.812 523.389C523.859 523.305 524.219 522.694 524.056 519.034C523.964 517.181 523.825 515.177 524.277 513.465C524.856 511.236 524.798 510.764 522.701 510.651ZM472.171 546.97C472.171 544.487 472.171 542.046 472.171 539.611C472.334 539.6 472.496 539.577 472.646 539.57C472.716 540.933 472.716 542.308 472.855 543.663C473.006 545.204 473.156 546.867 475.022 546.294C476.076 543.974 474.141 541.16 475.52 538.902C475.717 538.918 475.914 538.921 476.111 538.932C476.204 541.555 476.308 544.183 476.412 546.97C474.871 546.97 473.596 546.97 472.171 546.97ZM491.498 546.97C487.315 546.97 483.213 546.97 478.926 546.97C479.042 544.487 479.158 542.144 479.262 539.733C482.866 539.733 486.377 539.733 489.806 539.733C490.05 540.683 490.096 541.924 490.467 542.099C492.807 543.2 491.614 545.182 491.498 546.97ZM495.067 546.984C494.835 546.97 494.591 546.947 494.348 546.932C494.452 545.011 494.568 543.097 494.684 541.176C494.812 541.192 494.939 541.199 495.067 541.206C495.067 543.136 495.067 545.064 495.067 546.984Z" stroke="#E8C183" stroke-opacity="0.1" stroke-width="0.75" stroke-miterlimit="10"/>
<path d="M116.234 223.965H77.4648V268.212H116.234V223.965Z" stroke="#E8C183" stroke-opacity="0.1" stroke-width="0.75" stroke-miterlimit="10"/>
<path d="M85.5124 725.137H47.4746V168.887L85.5124 223.969V725.137Z" stroke="#E8C183" stroke-opacity="0.1" stroke-width="0.75" stroke-miterlimit="10"/>
<path d="M66.4952 237.518H47.4746V251.059H66.4952V237.518Z" stroke="#E8C183" stroke-opacity="0.1" stroke-width="0.75" stroke-miterlimit="10"/>
<path d="M66.4952 676.807H47.4746V690.346H66.4952V676.807Z" stroke="#E8C183" stroke-opacity="0.1" stroke-width="0.75" stroke-miterlimit="10"/>
<path d="M66.4952 251.062H47.4746V286.543H66.4952V251.062Z" stroke="#E8C183" stroke-opacity="0.1" stroke-width="0.75" stroke-miterlimit="10"/>
<path d="M66.4952 286.539H47.4746V322.018H66.4952V286.539Z" stroke="#E8C183" stroke-opacity="0.1" stroke-width="0.75" stroke-miterlimit="10"/>
<path d="M66.4952 322.018H47.4746V357.497H66.4952V322.018Z" stroke="#E8C183" stroke-opacity="0.1" stroke-width="0.75" stroke-miterlimit="10"/>
<path d="M66.4952 357.492H47.4746V392.973H66.4952V357.492Z" stroke="#E8C183" stroke-opacity="0.1" stroke-width="0.75" stroke-miterlimit="10"/>
<path d="M66.4952 392.975H47.4746V428.451H66.4952V392.975Z" stroke="#E8C183" stroke-opacity="0.1" stroke-width="0.75" stroke-miterlimit="10"/>
<path d="M66.4952 428.451H47.4746V463.935H66.4952V428.451Z" stroke="#E8C183" stroke-opacity="0.1" stroke-width="0.75" stroke-miterlimit="10"/>
<path d="M66.4952 463.932H47.4746V499.415H66.4952V463.932Z" stroke="#E8C183" stroke-opacity="0.1" stroke-width="0.75" stroke-miterlimit="10"/>
<path d="M66.4952 499.418H47.4746V534.894H66.4952V499.418Z" stroke="#E8C183" stroke-opacity="0.1" stroke-width="0.75" stroke-miterlimit="10"/>
<path d="M66.4952 534.893H47.4746V570.376H66.4952V534.893Z" stroke="#E8C183" stroke-opacity="0.1" stroke-width="0.75" stroke-miterlimit="10"/>
<path d="M66.4952 570.373H47.4746V605.849H66.4952V570.373Z" stroke="#E8C183" stroke-opacity="0.1" stroke-width="0.75" stroke-miterlimit="10"/>
<path d="M66.4952 605.844H47.4746V641.327H66.4952V605.844Z" stroke="#E8C183" stroke-opacity="0.1" stroke-width="0.75" stroke-miterlimit="10"/>
<path d="M66.4952 641.332H47.4746V676.807H66.4952V641.332Z" stroke="#E8C183" stroke-opacity="0.1" stroke-width="0.75" stroke-miterlimit="10"/>
<path d="M137.128 262.379H85.5117V286.538H137.128V262.379Z" stroke="#E8C183" stroke-opacity="0.1" stroke-width="0.75" stroke-miterlimit="10"/>
<path d="M137.128 286.537H85.5117V310.696H137.128V286.537Z" stroke="#E8C183" stroke-opacity="0.1" stroke-width="0.75" stroke-miterlimit="10"/>
<path d="M137.128 310.691H85.5117V334.849H137.128V310.691Z" stroke="#E8C183" stroke-opacity="0.1" stroke-width="0.75" stroke-miterlimit="10"/>
<path d="M137.128 334.859H85.5117V359.018H137.128V334.859Z" stroke="#E8C183" stroke-opacity="0.1" stroke-width="0.75" stroke-miterlimit="10"/>
<path d="M137.128 359.018H85.5117V383.176H137.128V359.018Z" stroke="#E8C183" stroke-opacity="0.1" stroke-width="0.75" stroke-miterlimit="10"/>
<path d="M137.128 383.176H85.5117V407.33H137.128V383.176Z" stroke="#E8C183" stroke-opacity="0.1" stroke-width="0.75" stroke-miterlimit="10"/>
<path d="M137.128 407.328H85.5117V444.22H137.128V407.328Z" stroke="#E8C183" stroke-opacity="0.1" stroke-width="0.75" stroke-miterlimit="10"/>
<path d="M85.5124 444.215V489.464L66.4952 504.651V695.433H47.4746V796.993H66.4952H137.131V695.433V444.215H85.5124Z" stroke="#E8C183" stroke-opacity="0.1" stroke-width="0.75" stroke-miterlimit="10"/>
<path d="M85.5102 520.9H82.6738V538.364H85.5102V520.9Z" stroke="#E8C183" stroke-opacity="0.1" stroke-width="0.75" stroke-miterlimit="10"/>
<path d="M102.999 520.9H100.164V538.364H102.999V520.9Z" stroke="#E8C183" stroke-opacity="0.1" stroke-width="0.75" stroke-miterlimit="10"/>
<path d="M120.492 520.9H117.656V538.364H120.492V520.9Z" stroke="#E8C183" stroke-opacity="0.1" stroke-width="0.75" stroke-miterlimit="10"/>
<path d="M85.5102 552.904H82.6738V570.369H85.5102V552.904Z" stroke="#E8C183" stroke-opacity="0.1" stroke-width="0.75" stroke-miterlimit="10"/>
<path d="M102.999 552.904H100.164V570.369H102.999V552.904Z" stroke="#E8C183" stroke-opacity="0.1" stroke-width="0.75" stroke-miterlimit="10"/>
<path d="M120.493 552.904H117.658V570.369H120.493V552.904Z" stroke="#E8C183" stroke-opacity="0.1" stroke-width="0.75" stroke-miterlimit="10"/>
<path d="M85.5102 584.912H82.6738V602.377H85.5102V584.912Z" stroke="#E8C183" stroke-opacity="0.1" stroke-width="0.75" stroke-miterlimit="10"/>
<path d="M102.999 584.912H100.164V602.377H102.999V584.912Z" stroke="#E8C183" stroke-opacity="0.1" stroke-width="0.75" stroke-miterlimit="10"/>
<path d="M120.493 584.912H117.658V602.377H120.493V584.912Z" stroke="#E8C183" stroke-opacity="0.1" stroke-width="0.75" stroke-miterlimit="10"/>
<path d="M85.5102 616.918H82.6738V634.383H85.5102V616.918Z" stroke="#E8C183" stroke-opacity="0.1" stroke-width="0.75" stroke-miterlimit="10"/>
<path d="M102.999 616.918H100.164V634.383H102.999V616.918Z" stroke="#E8C183" stroke-opacity="0.1" stroke-width="0.75" stroke-miterlimit="10"/>
<path d="M120.493 616.918H117.658V634.383H120.493V616.918Z" stroke="#E8C183" stroke-opacity="0.1" stroke-width="0.75" stroke-miterlimit="10"/>
<path d="M85.5102 648.92H82.6738V666.385H85.5102V648.92Z" stroke="#E8C183" stroke-opacity="0.1" stroke-width="0.75" stroke-miterlimit="10"/>
<path d="M102.999 648.92H100.164V666.385H102.999V648.92Z" stroke="#E8C183" stroke-opacity="0.1" stroke-width="0.75" stroke-miterlimit="10"/>
<path d="M120.493 648.92H117.658V666.385H120.493V648.92Z" stroke="#E8C183" stroke-opacity="0.1" stroke-width="0.75" stroke-miterlimit="10"/>
<path d="M85.5102 680.93H82.6738V698.395H85.5102V680.93Z" stroke="#E8C183" stroke-opacity="0.1" stroke-width="0.75" stroke-miterlimit="10"/>
<path d="M102.999 680.93H100.164V698.395H102.999V680.93Z" stroke="#E8C183" stroke-opacity="0.1" stroke-width="0.75" stroke-miterlimit="10"/>
<path d="M120.493 680.93H117.658V698.395H120.493V680.93Z" stroke="#E8C183" stroke-opacity="0.1" stroke-width="0.75" stroke-miterlimit="10"/>
<path d="M85.5102 712.934H82.6738V730.399H85.5102V712.934Z" stroke="#E8C183" stroke-opacity="0.1" stroke-width="0.75" stroke-miterlimit="10"/>
<path d="M102.999 712.934H100.164V730.399H102.999V712.934Z" stroke="#E8C183" stroke-opacity="0.1" stroke-width="0.75" stroke-miterlimit="10"/>
<path d="M120.493 712.934H117.658V730.399H120.493V712.934Z" stroke="#E8C183" stroke-opacity="0.1" stroke-width="0.75" stroke-miterlimit="10"/>
<path d="M297.92 599.914H172.254V796.998H297.92V599.914Z" stroke="#E8C183" stroke-opacity="0.1" stroke-width="0.75" stroke-miterlimit="10"/>
<path d="M240.241 55.875H229.935C229.962 57.3096 229.975 58.7598 229.975 60.2144C229.975 89.8095 225.025 115.66 217.656 129.655V130.878H252.511V129.651C245.15 115.653 240.205 89.8053 240.205 60.2144C240.207 58.7598 240.222 57.3096 240.241 55.875Z" stroke="#E8C183" stroke-opacity="0.1" stroke-width="0.75" stroke-miterlimit="10"/>
<path d="M236.566 1H233.613V55.8737H236.566V1Z" stroke="#E8C183" stroke-opacity="0.1" stroke-width="0.75" stroke-miterlimit="10"/>
<path d="M264.515 127.324H205.668V150.616H264.515V127.324Z" stroke="#E8C183" stroke-opacity="0.1" stroke-width="0.75" stroke-miterlimit="10"/>
<path d="M273.785 146.67H196.395V161.276H273.785V146.67Z" stroke="#E8C183" stroke-opacity="0.1" stroke-width="0.75" stroke-miterlimit="10"/>
<path d="M282.104 159.301H188.082V163.64H282.104V159.301Z" stroke="#E8C183" stroke-opacity="0.1" stroke-width="0.75" stroke-miterlimit="10"/>
<path d="M273.785 163.643H196.395V796.998H273.785V163.643Z" stroke="#E8C183" stroke-opacity="0.1" stroke-width="0.75" stroke-miterlimit="10"/>
<path d="M212.014 173.541H208.48V184.806H212.014V173.541Z" stroke="#E8C183" stroke-opacity="0.1" stroke-width="0.75" stroke-miterlimit="10"/>
<path d="M222.106 173.541H218.574V184.806H222.106V173.541Z" stroke="#E8C183" stroke-opacity="0.1" stroke-width="0.75" stroke-miterlimit="10"/>
<path d="M222.108 194.293H218.576V205.562H222.108V194.293Z" stroke="#E8C183" stroke-opacity="0.1" stroke-width="0.75" stroke-miterlimit="10"/>
<path d="M222.106 215.051H218.574V226.316H222.106V215.051Z" stroke="#E8C183" stroke-opacity="0.1" stroke-width="0.75" stroke-miterlimit="10"/>
<path d="M222.106 235.807H218.574V247.076H222.106V235.807Z" stroke="#E8C183" stroke-opacity="0.1" stroke-width="0.75" stroke-miterlimit="10"/>
<path d="M222.106 256.561H218.574V267.825H222.106V256.561Z" stroke="#E8C183" stroke-opacity="0.1" stroke-width="0.75" stroke-miterlimit="10"/>
<path d="M222.108 277.318H218.576V288.583H222.108V277.318Z" stroke="#E8C183" stroke-opacity="0.1" stroke-width="0.75" stroke-miterlimit="10"/>
<path d="M222.106 298.07H218.574V309.338H222.106V298.07Z" stroke="#E8C183" stroke-opacity="0.1" stroke-width="0.75" stroke-miterlimit="10"/>
<path d="M222.106 318.82H218.574V330.089H222.106V318.82Z" stroke="#E8C183" stroke-opacity="0.1" stroke-width="0.75" stroke-miterlimit="10"/>
<path d="M222.106 339.588H218.574V350.853H222.106V339.588Z" stroke="#E8C183" stroke-opacity="0.1" stroke-width="0.75" stroke-miterlimit="10"/>
<path d="M222.106 360.338H218.574V371.603H222.106V360.338Z" stroke="#E8C183" stroke-opacity="0.1" stroke-width="0.75" stroke-miterlimit="10"/>
<path d="M222.108 381.094H218.576V392.363H222.108V381.094Z" stroke="#E8C183" stroke-opacity="0.1" stroke-width="0.75" stroke-miterlimit="10"/>
<path d="M222.106 401.848H218.574V413.112H222.106V401.848Z" stroke="#E8C183" stroke-opacity="0.1" stroke-width="0.75" stroke-miterlimit="10"/>
<path d="M222.106 422.605H218.574V433.877H222.106V422.605Z" stroke="#E8C183" stroke-opacity="0.1" stroke-width="0.75" stroke-miterlimit="10"/>
<path d="M222.106 443.363H218.574V454.628H222.106V443.363Z" stroke="#E8C183" stroke-opacity="0.1" stroke-width="0.75" stroke-miterlimit="10"/>
<path d="M222.106 464.113H218.574V475.382H222.106V464.113Z" stroke="#E8C183" stroke-opacity="0.1" stroke-width="0.75" stroke-miterlimit="10"/>
<path d="M222.108 484.869H218.576V496.134H222.108V484.869Z" stroke="#E8C183" stroke-opacity="0.1" stroke-width="0.75" stroke-miterlimit="10"/>
<path d="M222.106 505.627H218.574V516.892H222.106V505.627Z" stroke="#E8C183" stroke-opacity="0.1" stroke-width="0.75" stroke-miterlimit="10"/>
<path d="M222.106 526.383H218.574V537.652H222.106V526.383Z" stroke="#E8C183" stroke-opacity="0.1" stroke-width="0.75" stroke-miterlimit="10"/>
<path d="M222.106 547.137H218.574V558.406H222.106V547.137Z" stroke="#E8C183" stroke-opacity="0.1" stroke-width="0.75" stroke-miterlimit="10"/>
<path d="M230.376 173.541H226.842V184.806H230.376V173.541Z" stroke="#E8C183" stroke-opacity="0.1" stroke-width="0.75" stroke-miterlimit="10"/>
<path d="M240.468 173.541H236.938V184.806H240.468V173.541Z" stroke="#E8C183" stroke-opacity="0.1" stroke-width="0.75" stroke-miterlimit="10"/>
<path d="M230.376 194.293H226.842V205.562H230.376V194.293Z" stroke="#E8C183" stroke-opacity="0.1" stroke-width="0.75" stroke-miterlimit="10"/>
<path d="M240.468 194.293H236.938V205.562H240.468V194.293Z" stroke="#E8C183" stroke-opacity="0.1" stroke-width="0.75" stroke-miterlimit="10"/>
<path d="M230.376 215.051H226.842V226.316H230.376V215.051Z" stroke="#E8C183" stroke-opacity="0.1" stroke-width="0.75" stroke-miterlimit="10"/>
<path d="M240.468 215.051H236.938V226.316H240.468V215.051Z" stroke="#E8C183" stroke-opacity="0.1" stroke-width="0.75" stroke-miterlimit="10"/>
<path d="M230.376 235.807H226.842V247.076H230.376V235.807Z" stroke="#E8C183" stroke-opacity="0.1" stroke-width="0.75" stroke-miterlimit="10"/>
<path d="M240.468 235.807H236.938V247.076H240.468V235.807Z" stroke="#E8C183" stroke-opacity="0.1" stroke-width="0.75" stroke-miterlimit="10"/>
<path d="M230.376 256.561H226.842V267.825H230.376V256.561Z" stroke="#E8C183" stroke-opacity="0.1" stroke-width="0.75" stroke-miterlimit="10"/>
<path d="M240.468 256.561H236.938V267.825H240.468V256.561Z" stroke="#E8C183" stroke-opacity="0.1" stroke-width="0.75" stroke-miterlimit="10"/>
<path d="M230.376 277.318H226.842V288.583H230.376V277.318Z" stroke="#E8C183" stroke-opacity="0.1" stroke-width="0.75" stroke-miterlimit="10"/>
<path d="M240.468 277.318H236.938V288.583H240.468V277.318Z" stroke="#E8C183" stroke-opacity="0.1" stroke-width="0.75" stroke-miterlimit="10"/>
<path d="M230.376 298.07H226.842V309.338H230.376V298.07Z" stroke="#E8C183" stroke-opacity="0.1" stroke-width="0.75" stroke-miterlimit="10"/>
<path d="M240.468 298.07H236.938V309.338H240.468V298.07Z" stroke="#E8C183" stroke-opacity="0.1" stroke-width="0.75" stroke-miterlimit="10"/>
<path d="M230.376 318.82H226.842V330.089H230.376V318.82Z" stroke="#E8C183" stroke-opacity="0.1" stroke-width="0.75" stroke-miterlimit="10"/>
<path d="M240.468 318.82H236.938V330.089H240.468V318.82Z" stroke="#E8C183" stroke-opacity="0.1" stroke-width="0.75" stroke-miterlimit="10"/>
<path d="M230.376 339.588H226.842V350.853H230.376V339.588Z" stroke="#E8C183" stroke-opacity="0.1" stroke-width="0.75" stroke-miterlimit="10"/>
<path d="M240.468 339.588H236.938V350.853H240.468V339.588Z" stroke="#E8C183" stroke-opacity="0.1" stroke-width="0.75" stroke-miterlimit="10"/>
<path d="M230.376 360.338H226.842V371.603H230.376V360.338Z" stroke="#E8C183" stroke-opacity="0.1" stroke-width="0.75" stroke-miterlimit="10"/>
<path d="M240.468 360.338H236.938V371.603H240.468V360.338Z" stroke="#E8C183" stroke-opacity="0.1" stroke-width="0.75" stroke-miterlimit="10"/>
<path d="M230.376 381.094H226.842V392.363H230.376V381.094Z" stroke="#E8C183" stroke-opacity="0.1" stroke-width="0.75" stroke-miterlimit="10"/>
<path d="M240.468 381.094H236.938V392.363H240.468V381.094Z" stroke="#E8C183" stroke-opacity="0.1" stroke-width="0.75" stroke-miterlimit="10"/>
<path d="M230.376 401.848H226.842V413.112H230.376V401.848Z" stroke="#E8C183" stroke-opacity="0.1" stroke-width="0.75" stroke-miterlimit="10"/>
<path d="M240.468 401.848H236.938V413.112H240.468V401.848Z" stroke="#E8C183" stroke-opacity="0.1" stroke-width="0.75" stroke-miterlimit="10"/>
<path d="M230.376 422.605H226.842V433.877H230.376V422.605Z" stroke="#E8C183" stroke-opacity="0.1" stroke-width="0.75" stroke-miterlimit="10"/>
<path d="M240.468 422.605H236.938V433.877H240.468V422.605Z" stroke="#E8C183" stroke-opacity="0.1" stroke-width="0.75" stroke-miterlimit="10"/>
<path d="M230.376 443.363H226.842V454.628H230.376V443.363Z" stroke="#E8C183" stroke-opacity="0.1" stroke-width="0.75" stroke-miterlimit="10"/>
<path d="M240.468 443.363H236.938V454.628H240.468V443.363Z" stroke="#E8C183" stroke-opacity="0.1" stroke-width="0.75" stroke-miterlimit="10"/>
<path d="M230.376 464.113H226.842V475.382H230.376V464.113Z" stroke="#E8C183" stroke-opacity="0.1" stroke-width="0.75" stroke-miterlimit="10"/>
<path d="M240.468 464.113H236.938V475.382H240.468V464.113Z" stroke="#E8C183" stroke-opacity="0.1" stroke-width="0.75" stroke-miterlimit="10"/>
<path d="M230.376 484.869H226.842V496.134H230.376V484.869Z" stroke="#E8C183" stroke-opacity="0.1" stroke-width="0.75" stroke-miterlimit="10"/>
<path d="M240.468 484.869H236.938V496.134H240.468V484.869Z" stroke="#E8C183" stroke-opacity="0.1" stroke-width="0.75" stroke-miterlimit="10"/>
<path d="M230.376 505.627H226.842V516.892H230.376V505.627Z" stroke="#E8C183" stroke-opacity="0.1" stroke-width="0.75" stroke-miterlimit="10"/>
<path d="M240.468 505.627H236.938V516.892H240.468V505.627Z" stroke="#E8C183" stroke-opacity="0.1" stroke-width="0.75" stroke-miterlimit="10"/>
<path d="M230.376 526.383H226.842V537.652H230.376V526.383Z" stroke="#E8C183" stroke-opacity="0.1" stroke-width="0.75" stroke-miterlimit="10"/>
<path d="M240.468 526.383H236.938V537.652H240.468V526.383Z" stroke="#E8C183" stroke-opacity="0.1" stroke-width="0.75" stroke-miterlimit="10"/>
<path d="M230.376 547.137H226.842V558.406H230.376V547.137Z" stroke="#E8C183" stroke-opacity="0.1" stroke-width="0.75" stroke-miterlimit="10"/>
<path d="M240.468 547.137H236.938V558.406H240.468V547.137Z" stroke="#E8C183" stroke-opacity="0.1" stroke-width="0.75" stroke-miterlimit="10"/>
<path d="M251.607 173.541H248.07V184.806H251.607V173.541Z" stroke="#E8C183" stroke-opacity="0.1" stroke-width="0.75" stroke-miterlimit="10"/>
<path d="M261.7 173.541H258.166V184.806H261.7V173.541Z" stroke="#E8C183" stroke-opacity="0.1" stroke-width="0.75" stroke-miterlimit="10"/>
<path d="M251.609 194.293H248.072V205.562H251.609V194.293Z" stroke="#E8C183" stroke-opacity="0.1" stroke-width="0.75" stroke-miterlimit="10"/>
<path d="M251.607 215.051H248.07V226.316H251.607V215.051Z" stroke="#E8C183" stroke-opacity="0.1" stroke-width="0.75" stroke-miterlimit="10"/>
<path d="M251.607 235.807H248.07V247.076H251.607V235.807Z" stroke="#E8C183" stroke-opacity="0.1" stroke-width="0.75" stroke-miterlimit="10"/>
<path d="M251.607 256.561H248.07V267.825H251.607V256.561Z" stroke="#E8C183" stroke-opacity="0.1" stroke-width="0.75" stroke-miterlimit="10"/>
<path d="M251.609 277.318H248.072V288.583H251.609V277.318Z" stroke="#E8C183" stroke-opacity="0.1" stroke-width="0.75" stroke-miterlimit="10"/>
<path d="M251.607 298.07H248.07V309.338H251.607V298.07Z" stroke="#E8C183" stroke-opacity="0.1" stroke-width="0.75" stroke-miterlimit="10"/>
<path d="M251.607 318.82H248.07V330.089H251.607V318.82Z" stroke="#E8C183" stroke-opacity="0.1" stroke-width="0.75" stroke-miterlimit="10"/>
<path d="M251.607 339.588H248.07V350.853H251.607V339.588Z" stroke="#E8C183" stroke-opacity="0.1" stroke-width="0.75" stroke-miterlimit="10"/>
<path d="M251.607 360.338H248.07V371.603H251.607V360.338Z" stroke="#E8C183" stroke-opacity="0.1" stroke-width="0.75" stroke-miterlimit="10"/>
<path d="M251.609 381.094H248.072V392.363H251.609V381.094Z" stroke="#E8C183" stroke-opacity="0.1" stroke-width="0.75" stroke-miterlimit="10"/>
<path d="M251.607 401.848H248.07V413.112H251.607V401.848Z" stroke="#E8C183" stroke-opacity="0.1" stroke-width="0.75" stroke-miterlimit="10"/>
<path d="M251.607 422.605H248.07V433.877H251.607V422.605Z" stroke="#E8C183" stroke-opacity="0.1" stroke-width="0.75" stroke-miterlimit="10"/>
<path d="M251.607 443.363H248.07V454.628H251.607V443.363Z" stroke="#E8C183" stroke-opacity="0.1" stroke-width="0.75" stroke-miterlimit="10"/>
<path d="M251.607 464.113H248.07V475.382H251.607V464.113Z" stroke="#E8C183" stroke-opacity="0.1" stroke-width="0.75" stroke-miterlimit="10"/>
<path d="M251.609 484.869H248.072V496.134H251.609V484.869Z" stroke="#E8C183" stroke-opacity="0.1" stroke-width="0.75" stroke-miterlimit="10"/>
<path d="M251.607 505.627H248.07V516.892H251.607V505.627Z" stroke="#E8C183" stroke-opacity="0.1" stroke-width="0.75" stroke-miterlimit="10"/>
<path d="M251.607 526.383H248.07V537.652H251.607V526.383Z" stroke="#E8C183" stroke-opacity="0.1" stroke-width="0.75" stroke-miterlimit="10"/>
<path d="M251.607 547.137H248.07V558.406H251.607V547.137Z" stroke="#E8C183" stroke-opacity="0.1" stroke-width="0.75" stroke-miterlimit="10"/>
<path d="M222.106 567.883H218.574V579.155H222.106V567.883Z" stroke="#E8C183" stroke-opacity="0.1" stroke-width="0.75" stroke-miterlimit="10"/>
<path d="M222.106 588.652H218.574V599.917H222.106V588.652Z" stroke="#E8C183" stroke-opacity="0.1" stroke-width="0.75" stroke-miterlimit="10"/>
<path d="M222.108 609.4H218.576V620.669H222.108V609.4Z" stroke="#E8C183" stroke-opacity="0.1" stroke-width="0.75" stroke-miterlimit="10"/>
<path d="M222.108 630.156H218.576V641.425H222.108V630.156Z" stroke="#E8C183" stroke-opacity="0.1" stroke-width="0.75" stroke-miterlimit="10"/>
<path d="M230.376 567.883H226.842V579.155H230.376V567.883Z" stroke="#E8C183" stroke-opacity="0.1" stroke-width="0.75" stroke-miterlimit="10"/>
<path d="M240.468 567.883H236.938V579.155H240.468V567.883Z" stroke="#E8C183" stroke-opacity="0.1" stroke-width="0.75" stroke-miterlimit="10"/>
<path d="M230.376 588.652H226.842V599.917H230.376V588.652Z" stroke="#E8C183" stroke-opacity="0.1" stroke-width="0.75" stroke-miterlimit="10"/>
<path d="M240.468 588.652H236.938V599.917H240.468V588.652Z" stroke="#E8C183" stroke-opacity="0.1" stroke-width="0.75" stroke-miterlimit="10"/>
<path d="M230.376 609.4H226.842V620.669H230.376V609.4Z" stroke="#E8C183" stroke-opacity="0.1" stroke-width="0.75" stroke-miterlimit="10"/>
<path d="M240.468 609.4H236.938V620.669H240.468V609.4Z" stroke="#E8C183" stroke-opacity="0.1" stroke-width="0.75" stroke-miterlimit="10"/>
<path d="M230.376 630.156H226.842V641.425H230.376V630.156Z" stroke="#E8C183" stroke-opacity="0.1" stroke-width="0.75" stroke-miterlimit="10"/>
<path d="M240.468 630.156H236.938V641.425H240.468V630.156Z" stroke="#E8C183" stroke-opacity="0.1" stroke-width="0.75" stroke-miterlimit="10"/>
<path d="M251.607 567.883H248.07V579.155H251.607V567.883Z" stroke="#E8C183" stroke-opacity="0.1" stroke-width="0.75" stroke-miterlimit="10"/>
<path d="M251.607 588.652H248.07V599.917H251.607V588.652Z" stroke="#E8C183" stroke-opacity="0.1" stroke-width="0.75" stroke-miterlimit="10"/>
<path d="M251.609 609.4H248.072V620.669H251.609V609.4Z" stroke="#E8C183" stroke-opacity="0.1" stroke-width="0.75" stroke-miterlimit="10"/>
<path d="M251.609 630.156H248.072V641.425H251.609V630.156Z" stroke="#E8C183" stroke-opacity="0.1" stroke-width="0.75" stroke-miterlimit="10"/>
<path d="M211.575 197.344H188.904V267.483H211.575V197.344Z" stroke="#E8C183" stroke-opacity="0.1" stroke-width="0.75" stroke-miterlimit="10"/>
<path d="M202.001 206.789H198.471V218.058H202.001V206.789Z" stroke="#E8C183" stroke-opacity="0.1" stroke-width="0.75" stroke-miterlimit="10"/>
<path d="M202.001 226.779H198.471V238.044H202.001V226.779Z" stroke="#E8C183" stroke-opacity="0.1" stroke-width="0.75" stroke-miterlimit="10"/>
<path d="M202.001 246.764H198.471V258.028H202.001V246.764Z" stroke="#E8C183" stroke-opacity="0.1" stroke-width="0.75" stroke-miterlimit="10"/>
<path d="M281.269 197.344H258.605V267.483H281.269V197.344Z" stroke="#E8C183" stroke-opacity="0.1" stroke-width="0.75" stroke-miterlimit="10"/>
<path d="M271.71 206.789H268.164V218.058H271.71V206.789Z" stroke="#E8C183" stroke-opacity="0.1" stroke-width="0.75" stroke-miterlimit="10"/>
<path d="M271.71 226.779H268.164V238.044H271.71V226.779Z" stroke="#E8C183" stroke-opacity="0.1" stroke-width="0.75" stroke-miterlimit="10"/>
<path d="M271.71 246.764H268.164V258.028H271.71V246.764Z" stroke="#E8C183" stroke-opacity="0.1" stroke-width="0.75" stroke-miterlimit="10"/>
<path d="M249.847 264.748V657.751H220.33V264.748H182.383V657.751V796.998H220.33H249.847H287.793V657.751V264.748H249.847Z" stroke="#E8C183" stroke-opacity="0.1" stroke-width="0.75" stroke-miterlimit="10"/>
<path d="M197.264 278.379H193.73V289.648H197.264V278.379Z" stroke="#E8C183" stroke-opacity="0.1" stroke-width="0.75" stroke-miterlimit="10"/>
<path d="M207.357 278.379H203.826V289.647H207.357V278.379Z" stroke="#E8C183" stroke-opacity="0.1" stroke-width="0.75" stroke-miterlimit="10"/>
<path d="M197.264 299.139H193.73V310.406H197.264V299.139Z" stroke="#E8C183" stroke-opacity="0.1" stroke-width="0.75" stroke-miterlimit="10"/>
<path d="M207.357 299.139H203.826V310.406H207.357V299.139Z" stroke="#E8C183" stroke-opacity="0.1" stroke-width="0.75" stroke-miterlimit="10"/>
<path d="M197.264 319.891H193.73V331.155H197.264V319.891Z" stroke="#E8C183" stroke-opacity="0.1" stroke-width="0.75" stroke-miterlimit="10"/>
<path d="M207.357 319.891H203.826V331.155H207.357V319.891Z" stroke="#E8C183" stroke-opacity="0.1" stroke-width="0.75" stroke-miterlimit="10"/>
<path d="M197.264 340.65H193.73V351.915H197.264V340.65Z" stroke="#E8C183" stroke-opacity="0.1" stroke-width="0.75" stroke-miterlimit="10"/>
<path d="M207.357 340.65H203.826V351.915H207.357V340.65Z" stroke="#E8C183" stroke-opacity="0.1" stroke-width="0.75" stroke-miterlimit="10"/>
<path d="M197.264 361.408H193.73V372.676H197.264V361.408Z" stroke="#E8C183" stroke-opacity="0.1" stroke-width="0.75" stroke-miterlimit="10"/>
<path d="M207.357 361.408H203.826V372.676H207.357V361.408Z" stroke="#E8C183" stroke-opacity="0.1" stroke-width="0.75" stroke-miterlimit="10"/>
<path d="M197.264 382.158H193.73V393.426H197.264V382.158Z" stroke="#E8C183" stroke-opacity="0.1" stroke-width="0.75" stroke-miterlimit="10"/>
<path d="M207.357 382.158H203.826V393.426H207.357V382.158Z" stroke="#E8C183" stroke-opacity="0.1" stroke-width="0.75" stroke-miterlimit="10"/>
<path d="M197.264 402.91H193.73V414.179H197.264V402.91Z" stroke="#E8C183" stroke-opacity="0.1" stroke-width="0.75" stroke-miterlimit="10"/>
<path d="M207.357 402.91H203.826V414.179H207.357V402.91Z" stroke="#E8C183" stroke-opacity="0.1" stroke-width="0.75" stroke-miterlimit="10"/>
<path d="M197.264 423.666H193.73V434.931H197.264V423.666Z" stroke="#E8C183" stroke-opacity="0.1" stroke-width="0.75" stroke-miterlimit="10"/>
<path d="M207.357 423.666H203.826V434.931H207.357V423.666Z" stroke="#E8C183" stroke-opacity="0.1" stroke-width="0.75" stroke-miterlimit="10"/>
<path d="M197.264 444.428H193.73V455.7H197.264V444.428Z" stroke="#E8C183" stroke-opacity="0.1" stroke-width="0.75" stroke-miterlimit="10"/>
<path d="M207.357 444.428H203.826V455.7H207.357V444.428Z" stroke="#E8C183" stroke-opacity="0.1" stroke-width="0.75" stroke-miterlimit="10"/>
<path d="M197.264 465.182H193.73V476.451H197.264V465.182Z" stroke="#E8C183" stroke-opacity="0.1" stroke-width="0.75" stroke-miterlimit="10"/>
<path d="M207.357 465.182H203.826V476.451H207.357V465.182Z" stroke="#E8C183" stroke-opacity="0.1" stroke-width="0.75" stroke-miterlimit="10"/>
<path d="M197.264 485.934H193.73V497.203H197.264V485.934Z" stroke="#E8C183" stroke-opacity="0.1" stroke-width="0.75" stroke-miterlimit="10"/>
<path d="M207.357 485.934H203.826V497.203H207.357V485.934Z" stroke="#E8C183" stroke-opacity="0.1" stroke-width="0.75" stroke-miterlimit="10"/>
<path d="M197.264 506.689H193.73V517.961H197.264V506.689Z" stroke="#E8C183" stroke-opacity="0.1" stroke-width="0.75" stroke-miterlimit="10"/>
<path d="M207.357 506.689H203.826V517.961H207.357V506.689Z" stroke="#E8C183" stroke-opacity="0.1" stroke-width="0.75" stroke-miterlimit="10"/>
<path d="M197.264 527.451H193.73V538.713H197.264V527.451Z" stroke="#E8C183" stroke-opacity="0.1" stroke-width="0.75" stroke-miterlimit="10"/>
<path d="M207.357 527.451H203.826V538.713H207.357V527.451Z" stroke="#E8C183" stroke-opacity="0.1" stroke-width="0.75" stroke-miterlimit="10"/>
<path d="M197.264 548.203H193.73V559.472H197.264V548.203Z" stroke="#E8C183" stroke-opacity="0.1" stroke-width="0.75" stroke-miterlimit="10"/>
<path d="M207.357 548.203H203.826V559.472H207.357V548.203Z" stroke="#E8C183" stroke-opacity="0.1" stroke-width="0.75" stroke-miterlimit="10"/>
<path d="M197.264 568.961H193.73V580.226H197.264V568.961Z" stroke="#E8C183" stroke-opacity="0.1" stroke-width="0.75" stroke-miterlimit="10"/>
<path d="M207.357 568.961H203.826V580.226H207.357V568.961Z" stroke="#E8C183" stroke-opacity="0.1" stroke-width="0.75" stroke-miterlimit="10"/>
<path d="M197.264 589.715H193.73V600.98H197.264V589.715Z" stroke="#E8C183" stroke-opacity="0.1" stroke-width="0.75" stroke-miterlimit="10"/>
<path d="M207.357 589.715H203.826V600.98H207.357V589.715Z" stroke="#E8C183" stroke-opacity="0.1" stroke-width="0.75" stroke-miterlimit="10"/>
<path d="M197.264 610.471H193.73V621.74H197.264V610.471Z" stroke="#E8C183" stroke-opacity="0.1" stroke-width="0.75" stroke-miterlimit="10"/>
<path d="M207.357 610.471H203.826V621.74H207.357V610.471Z" stroke="#E8C183" stroke-opacity="0.1" stroke-width="0.75" stroke-miterlimit="10"/>
<path d="M197.264 631.223H193.73V642.492H197.264V631.223Z" stroke="#E8C183" stroke-opacity="0.1" stroke-width="0.75" stroke-miterlimit="10"/>
<path d="M207.357 631.223H203.826V642.492H207.357V631.223Z" stroke="#E8C183" stroke-opacity="0.1" stroke-width="0.75" stroke-miterlimit="10"/>
<path d="M197.264 651.982H193.73V663.25H197.264V651.982Z" stroke="#E8C183" stroke-opacity="0.1" stroke-width="0.75" stroke-miterlimit="10"/>
<path d="M207.357 651.982H203.826V663.25H207.357V651.982Z" stroke="#E8C183" stroke-opacity="0.1" stroke-width="0.75" stroke-miterlimit="10"/>
<path d="M197.264 672.742H193.73V684.016H197.264V672.742Z" stroke="#E8C183" stroke-opacity="0.1" stroke-width="0.75" stroke-miterlimit="10"/>
<path d="M207.357 672.742H203.826V684.016H207.357V672.742Z" stroke="#E8C183" stroke-opacity="0.1" stroke-width="0.75" stroke-miterlimit="10"/>
<path d="M197.264 693.492H193.73V704.757H197.264V693.492Z" stroke="#E8C183" stroke-opacity="0.1" stroke-width="0.75" stroke-miterlimit="10"/>
<path d="M207.357 693.492H203.826V704.757H207.357V693.492Z" stroke="#E8C183" stroke-opacity="0.1" stroke-width="0.75" stroke-miterlimit="10"/>
<path d="M197.264 714.246H193.73V725.511H197.264V714.246Z" stroke="#E8C183" stroke-opacity="0.1" stroke-width="0.75" stroke-miterlimit="10"/>
<path d="M207.357 714.246H203.826V725.511H207.357V714.246Z" stroke="#E8C183" stroke-opacity="0.1" stroke-width="0.75" stroke-miterlimit="10"/>
<path d="M197.264 735.008H193.73V746.28H197.264V735.008Z" stroke="#E8C183" stroke-opacity="0.1" stroke-width="0.75" stroke-miterlimit="10"/>
<path d="M207.357 735.008H203.826V746.28H207.357V735.008Z" stroke="#E8C183" stroke-opacity="0.1" stroke-width="0.75" stroke-miterlimit="10"/>
<path d="M197.264 755.762H193.73V767.027H197.264V755.762Z" stroke="#E8C183" stroke-opacity="0.1" stroke-width="0.75" stroke-miterlimit="10"/>
<path d="M207.357 755.762H203.826V767.027H207.357V755.762Z" stroke="#E8C183" stroke-opacity="0.1" stroke-width="0.75" stroke-miterlimit="10"/>
<path d="M221.746 672.742H218.215V684.016H221.746V672.742Z" stroke="#E8C183" stroke-opacity="0.1" stroke-width="0.75" stroke-miterlimit="10"/>
<path d="M231.843 672.742H228.312V684.016H231.843V672.742Z" stroke="#E8C183" stroke-opacity="0.1" stroke-width="0.75" stroke-miterlimit="10"/>
<path d="M221.746 693.492H218.215V704.757H221.746V693.492Z" stroke="#E8C183" stroke-opacity="0.1" stroke-width="0.75" stroke-miterlimit="10"/>
<path d="M231.843 693.492H228.312V704.757H231.843V693.492Z" stroke="#E8C183" stroke-opacity="0.1" stroke-width="0.75" stroke-miterlimit="10"/>
<path d="M221.746 714.246H218.215V725.511H221.746V714.246Z" stroke="#E8C183" stroke-opacity="0.1" stroke-width="0.75" stroke-miterlimit="10"/>
<path d="M231.843 714.246H228.312V725.511H231.843V714.246Z" stroke="#E8C183" stroke-opacity="0.1" stroke-width="0.75" stroke-miterlimit="10"/>
<path d="M221.746 735.008H218.215V746.28H221.746V735.008Z" stroke="#E8C183" stroke-opacity="0.1" stroke-width="0.75" stroke-miterlimit="10"/>
<path d="M231.843 735.008H228.312V746.28H231.843V735.008Z" stroke="#E8C183" stroke-opacity="0.1" stroke-width="0.75" stroke-miterlimit="10"/>
<path d="M221.746 755.762H218.215V767.027H221.746V755.762Z" stroke="#E8C183" stroke-opacity="0.1" stroke-width="0.75" stroke-miterlimit="10"/>
<path d="M231.843 755.762H228.312V767.027H231.843V755.762Z" stroke="#E8C183" stroke-opacity="0.1" stroke-width="0.75" stroke-miterlimit="10"/>
<path d="M242.354 672.742H238.82V684.016H242.354V672.742Z" stroke="#E8C183" stroke-opacity="0.1" stroke-width="0.75" stroke-miterlimit="10"/>
<path d="M252.442 672.742H248.908V684.016H252.442V672.742Z" stroke="#E8C183" stroke-opacity="0.1" stroke-width="0.75" stroke-miterlimit="10"/>
<path d="M242.354 693.492H238.82V704.757H242.354V693.492Z" stroke="#E8C183" stroke-opacity="0.1" stroke-width="0.75" stroke-miterlimit="10"/>
<path d="M252.442 693.492H248.908V704.757H252.442V693.492Z" stroke="#E8C183" stroke-opacity="0.1" stroke-width="0.75" stroke-miterlimit="10"/>
<path d="M242.354 714.246H238.82V725.511H242.354V714.246Z" stroke="#E8C183" stroke-opacity="0.1" stroke-width="0.75" stroke-miterlimit="10"/>
<path d="M252.442 714.246H248.908V725.511H252.442V714.246Z" stroke="#E8C183" stroke-opacity="0.1" stroke-width="0.75" stroke-miterlimit="10"/>
<path d="M242.354 735.008H238.82V746.28H242.354V735.008Z" stroke="#E8C183" stroke-opacity="0.1" stroke-width="0.75" stroke-miterlimit="10"/>
<path d="M252.442 735.008H248.908V746.28H252.442V735.008Z" stroke="#E8C183" stroke-opacity="0.1" stroke-width="0.75" stroke-miterlimit="10"/>
<path d="M242.354 755.762H238.82V767.027H242.354V755.762Z" stroke="#E8C183" stroke-opacity="0.1" stroke-width="0.75" stroke-miterlimit="10"/>
<path d="M252.442 755.762H248.908V767.027H252.442V755.762Z" stroke="#E8C183" stroke-opacity="0.1" stroke-width="0.75" stroke-miterlimit="10"/>
<path d="M266.358 278.379H262.824V289.648H266.358V278.379Z" stroke="#E8C183" stroke-opacity="0.1" stroke-width="0.75" stroke-miterlimit="10"/>
<path d="M276.45 278.379H272.916V289.647H276.45V278.379Z" stroke="#E8C183" stroke-opacity="0.1" stroke-width="0.75" stroke-miterlimit="10"/>
<path d="M266.358 299.139H262.824V310.406H266.358V299.139Z" stroke="#E8C183" stroke-opacity="0.1" stroke-width="0.75" stroke-miterlimit="10"/>
<path d="M276.45 299.139H272.916V310.406H276.45V299.139Z" stroke="#E8C183" stroke-opacity="0.1" stroke-width="0.75" stroke-miterlimit="10"/>
<path d="M266.358 319.891H262.824V331.155H266.358V319.891Z" stroke="#E8C183" stroke-opacity="0.1" stroke-width="0.75" stroke-miterlimit="10"/>
<path d="M276.45 319.891H272.916V331.155H276.45V319.891Z" stroke="#E8C183" stroke-opacity="0.1" stroke-width="0.75" stroke-miterlimit="10"/>
<path d="M266.358 340.65H262.824V351.915H266.358V340.65Z" stroke="#E8C183" stroke-opacity="0.1" stroke-width="0.75" stroke-miterlimit="10"/>
<path d="M276.45 340.65H272.916V351.915H276.45V340.65Z" stroke="#E8C183" stroke-opacity="0.1" stroke-width="0.75" stroke-miterlimit="10"/>
<path d="M266.358 361.408H262.824V372.676H266.358V361.408Z" stroke="#E8C183" stroke-opacity="0.1" stroke-width="0.75" stroke-miterlimit="10"/>
<path d="M276.45 361.408H272.916V372.676H276.45V361.408Z" stroke="#E8C183" stroke-opacity="0.1" stroke-width="0.75" stroke-miterlimit="10"/>
<path d="M266.358 382.158H262.824V393.426H266.358V382.158Z" stroke="#E8C183" stroke-opacity="0.1" stroke-width="0.75" stroke-miterlimit="10"/>
<path d="M276.45 382.158H272.916V393.426H276.45V382.158Z" stroke="#E8C183" stroke-opacity="0.1" stroke-width="0.75" stroke-miterlimit="10"/>
<path d="M266.358 402.91H262.824V414.179H266.358V402.91Z" stroke="#E8C183" stroke-opacity="0.1" stroke-width="0.75" stroke-miterlimit="10"/>
<path d="M276.45 402.91H272.916V414.179H276.45V402.91Z" stroke="#E8C183" stroke-opacity="0.1" stroke-width="0.75" stroke-miterlimit="10"/>
<path d="M266.358 423.666H262.824V434.931H266.358V423.666Z" stroke="#E8C183" stroke-opacity="0.1" stroke-width="0.75" stroke-miterlimit="10"/>
<path d="M276.45 423.666H272.916V434.931H276.45V423.666Z" stroke="#E8C183" stroke-opacity="0.1" stroke-width="0.75" stroke-miterlimit="10"/>
<path d="M266.358 444.428H262.824V455.7H266.358V444.428Z" stroke="#E8C183" stroke-opacity="0.1" stroke-width="0.75" stroke-miterlimit="10"/>
<path d="M276.45 444.428H272.916V455.7H276.45V444.428Z" stroke="#E8C183" stroke-opacity="0.1" stroke-width="0.75" stroke-miterlimit="10"/>
<path d="M266.358 465.182H262.824V476.451H266.358V465.182Z" stroke="#E8C183" stroke-opacity="0.1" stroke-width="0.75" stroke-miterlimit="10"/>
<path d="M276.45 465.182H272.916V476.451H276.45V465.182Z" stroke="#E8C183" stroke-opacity="0.1" stroke-width="0.75" stroke-miterlimit="10"/>
<path d="M266.358 485.934H262.824V497.203H266.358V485.934Z" stroke="#E8C183" stroke-opacity="0.1" stroke-width="0.75" stroke-miterlimit="10"/>
<path d="M276.45 485.934H272.916V497.203H276.45V485.934Z" stroke="#E8C183" stroke-opacity="0.1" stroke-width="0.75" stroke-miterlimit="10"/>
<path d="M266.358 506.689H262.824V517.961H266.358V506.689Z" stroke="#E8C183" stroke-opacity="0.1" stroke-width="0.75" stroke-miterlimit="10"/>
<path d="M276.45 506.689H272.916V517.961H276.45V506.689Z" stroke="#E8C183" stroke-opacity="0.1" stroke-width="0.75" stroke-miterlimit="10"/>
<path d="M266.358 527.453H262.824V538.714H266.358V527.453Z" stroke="#E8C183" stroke-opacity="0.1" stroke-width="0.75" stroke-miterlimit="10"/>
<path d="M276.45 527.451H272.916V538.713H276.45V527.451Z" stroke="#E8C183" stroke-opacity="0.1" stroke-width="0.75" stroke-miterlimit="10"/>
<path d="M266.358 548.203H262.824V559.472H266.358V548.203Z" stroke="#E8C183" stroke-opacity="0.1" stroke-width="0.75" stroke-miterlimit="10"/>
<path d="M276.45 548.203H272.916V559.472H276.45V548.203Z" stroke="#E8C183" stroke-opacity="0.1" stroke-width="0.75" stroke-miterlimit="10"/>
<path d="M266.358 568.961H262.824V580.226H266.358V568.961Z" stroke="#E8C183" stroke-opacity="0.1" stroke-width="0.75" stroke-miterlimit="10"/>
<path d="M276.45 568.961H272.916V580.226H276.45V568.961Z" stroke="#E8C183" stroke-opacity="0.1" stroke-width="0.75" stroke-miterlimit="10"/>
<path d="M266.358 589.715H262.824V600.98H266.358V589.715Z" stroke="#E8C183" stroke-opacity="0.1" stroke-width="0.75" stroke-miterlimit="10"/>
<path d="M276.45 589.715H272.916V600.98H276.45V589.715Z" stroke="#E8C183" stroke-opacity="0.1" stroke-width="0.75" stroke-miterlimit="10"/>
<path d="M266.358 610.471H262.824V621.74H266.358V610.471Z" stroke="#E8C183" stroke-opacity="0.1" stroke-width="0.75" stroke-miterlimit="10"/>
<path d="M276.45 610.471H272.916V621.74H276.45V610.471Z" stroke="#E8C183" stroke-opacity="0.1" stroke-width="0.75" stroke-miterlimit="10"/>
<path d="M266.358 631.223H262.824V642.492H266.358V631.223Z" stroke="#E8C183" stroke-opacity="0.1" stroke-width="0.75" stroke-miterlimit="10"/>
<path d="M276.45 631.223H272.916V642.492H276.45V631.223Z" stroke="#E8C183" stroke-opacity="0.1" stroke-width="0.75" stroke-miterlimit="10"/>
<path d="M266.358 651.982H262.824V663.25H266.358V651.982Z" stroke="#E8C183" stroke-opacity="0.1" stroke-width="0.75" stroke-miterlimit="10"/>
<path d="M276.45 651.982H272.916V663.25H276.45V651.982Z" stroke="#E8C183" stroke-opacity="0.1" stroke-width="0.75" stroke-miterlimit="10"/>
<path d="M266.358 672.742H262.824V684.016H266.358V672.742Z" stroke="#E8C183" stroke-opacity="0.1" stroke-width="0.75" stroke-miterlimit="10"/>
<path d="M276.45 672.742H272.916V684.016H276.45V672.742Z" stroke="#E8C183" stroke-opacity="0.1" stroke-width="0.75" stroke-miterlimit="10"/>
<path d="M266.358 693.492H262.824V704.757H266.358V693.492Z" stroke="#E8C183" stroke-opacity="0.1" stroke-width="0.75" stroke-miterlimit="10"/>
<path d="M276.45 693.492H272.916V704.757H276.45V693.492Z" stroke="#E8C183" stroke-opacity="0.1" stroke-width="0.75" stroke-miterlimit="10"/>
<path d="M266.358 714.246H262.824V725.511H266.358V714.246Z" stroke="#E8C183" stroke-opacity="0.1" stroke-width="0.75" stroke-miterlimit="10"/>
<path d="M276.45 714.246H272.916V725.511H276.45V714.246Z" stroke="#E8C183" stroke-opacity="0.1" stroke-width="0.75" stroke-miterlimit="10"/>
<path d="M266.358 735.008H262.824V746.28H266.358V735.008Z" stroke="#E8C183" stroke-opacity="0.1" stroke-width="0.75" stroke-miterlimit="10"/>
<path d="M276.45 735.008H272.916V746.28H276.45V735.008Z" stroke="#E8C183" stroke-opacity="0.1" stroke-width="0.75" stroke-miterlimit="10"/>
<path d="M266.358 755.762H262.824V767.027H266.358V755.762Z" stroke="#E8C183" stroke-opacity="0.1" stroke-width="0.75" stroke-miterlimit="10"/>
<path d="M276.45 755.762H272.916V767.027H276.45V755.762Z" stroke="#E8C183" stroke-opacity="0.1" stroke-width="0.75" stroke-miterlimit="10"/>
<path d="M335.38 714.248H293.297V796.996H335.38V714.248Z" stroke="#E8C183" stroke-opacity="0.1" stroke-width="0.75" stroke-miterlimit="10"/>
<path d="M321.349 731.172H317.676V740.633H321.349V731.172Z" stroke="#E8C183" stroke-opacity="0.1" stroke-width="0.75" stroke-miterlimit="10"/>
<path d="M321.349 751.928H317.676V761.389H321.349V751.928Z" stroke="#E8C183" stroke-opacity="0.1" stroke-width="0.75" stroke-miterlimit="10"/>
<path d="M321.349 772.684H317.676V782.152H321.349V772.684Z" stroke="#E8C183" stroke-opacity="0.1" stroke-width="0.75" stroke-miterlimit="10"/>
<path d="M304.975 674.826H267.852V796.995H304.975V674.826Z" stroke="#E8C183" stroke-opacity="0.1" stroke-width="0.75" stroke-miterlimit="10"/>
<path d="M283.726 690.51H279.543V700.423H283.726V690.51Z" stroke="#E8C183" stroke-opacity="0.1" stroke-width="0.75" stroke-miterlimit="10"/>
<path d="M293.284 690.51H289.102V700.423H293.284V690.51Z" stroke="#E8C183" stroke-opacity="0.1" stroke-width="0.75" stroke-miterlimit="10"/>
<path d="M283.726 711.771H279.543V721.669H283.726V711.771Z" stroke="#E8C183" stroke-opacity="0.1" stroke-width="0.75" stroke-miterlimit="10"/>
<path d="M293.284 711.771H289.102V721.669H293.284V711.771Z" stroke="#E8C183" stroke-opacity="0.1" stroke-width="0.75" stroke-miterlimit="10"/>
<path d="M283.726 733.029H279.543V742.935H283.726V733.029Z" stroke="#E8C183" stroke-opacity="0.1" stroke-width="0.75" stroke-miterlimit="10"/>
<path d="M293.284 733.029H289.102V742.935H293.284V733.029Z" stroke="#E8C183" stroke-opacity="0.1" stroke-width="0.75" stroke-miterlimit="10"/>
<path d="M283.726 754.273H279.543V764.18H283.726V754.273Z" stroke="#E8C183" stroke-opacity="0.1" stroke-width="0.75" stroke-miterlimit="10"/>
<path d="M293.284 754.273H289.102V764.18H293.284V754.273Z" stroke="#E8C183" stroke-opacity="0.1" stroke-width="0.75" stroke-miterlimit="10"/>
<path d="M283.726 775.529H279.543V785.434H283.726V775.529Z" stroke="#E8C183" stroke-opacity="0.1" stroke-width="0.75" stroke-miterlimit="10"/>
<path d="M293.284 775.529H289.102V785.434H293.284V775.529Z" stroke="#E8C183" stroke-opacity="0.1" stroke-width="0.75" stroke-miterlimit="10"/>
<path d="M176.882 714.248H134.797V796.996H176.882V714.248Z" stroke="#E8C183" stroke-opacity="0.1" stroke-width="0.75" stroke-miterlimit="10"/>
<path d="M152.501 731.172H148.822V740.633H152.501V731.172Z" stroke="#E8C183" stroke-opacity="0.1" stroke-width="0.75" stroke-miterlimit="10"/>
<path d="M152.501 751.928H148.822V761.389H152.501V751.928Z" stroke="#E8C183" stroke-opacity="0.1" stroke-width="0.75" stroke-miterlimit="10"/>
<path d="M152.501 772.684H148.822V782.152H152.501V772.684Z" stroke="#E8C183" stroke-opacity="0.1" stroke-width="0.75" stroke-miterlimit="10"/>
<path d="M201.413 674.826H164.301V796.995H201.413V674.826Z" stroke="#E8C183" stroke-opacity="0.1" stroke-width="0.75" stroke-miterlimit="10"/>
<path d="M180.165 690.51H175.988V700.423H180.165V690.51Z" stroke="#E8C183" stroke-opacity="0.1" stroke-width="0.75" stroke-miterlimit="10"/>
<path d="M189.725 690.51H185.541V700.423H189.725V690.51Z" stroke="#E8C183" stroke-opacity="0.1" stroke-width="0.75" stroke-miterlimit="10"/>
<path d="M180.165 711.771H175.988V721.669H180.165V711.771Z" stroke="#E8C183" stroke-opacity="0.1" stroke-width="0.75" stroke-miterlimit="10"/>
<path d="M189.725 711.771H185.541V721.669H189.725V711.771Z" stroke="#E8C183" stroke-opacity="0.1" stroke-width="0.75" stroke-miterlimit="10"/>
<path d="M180.163 733.029H175.986V742.935H180.163V733.029Z" stroke="#E8C183" stroke-opacity="0.1" stroke-width="0.75" stroke-miterlimit="10"/>
<path d="M189.725 733.029H185.541V742.935H189.725V733.029Z" stroke="#E8C183" stroke-opacity="0.1" stroke-width="0.75" stroke-miterlimit="10"/>
<path d="M180.165 754.273H175.988V764.18H180.165V754.273Z" stroke="#E8C183" stroke-opacity="0.1" stroke-width="0.75" stroke-miterlimit="10"/>
<path d="M189.725 754.273H185.541V764.18H189.725V754.273Z" stroke="#E8C183" stroke-opacity="0.1" stroke-width="0.75" stroke-miterlimit="10"/>
<path d="M180.163 775.529H175.986V785.434H180.163V775.529Z" stroke="#E8C183" stroke-opacity="0.1" stroke-width="0.75" stroke-miterlimit="10"/>
<path d="M189.725 775.529H185.541V785.434H189.725V775.529Z" stroke="#E8C183" stroke-opacity="0.1" stroke-width="0.75" stroke-miterlimit="10"/>
<path d="M40.3769 770.057H-24.2129V268.896L51.9102 349.576L40.3769 770.057Z" stroke="#E8C183" stroke-opacity="0.1" stroke-width="0.75" stroke-miterlimit="10"/>
<path d="M37.5022 525.538L39.3758 437.117L-10.543 482.135L37.5022 525.538Z" stroke="#E8C183" stroke-opacity="0.1" stroke-width="0.75" stroke-miterlimit="10"/>
<path d="M-7.45703 394.066L39.6195 425.481L41.0898 355.93L-7.45703 394.066Z" stroke="#E8C183" stroke-opacity="0.1" stroke-width="0.75" stroke-miterlimit="10"/>
<path d="M-15.7539 294.525V391.588L37.5817 349.687L-15.7539 294.525Z" stroke="#E8C183" stroke-opacity="0.1" stroke-width="0.75" stroke-miterlimit="10"/>
<path d="M-15.7539 643.817H34.9944L35.0292 642.283L-15.7539 583.762V643.817Z" stroke="#E8C183" stroke-opacity="0.1" stroke-width="0.75" stroke-miterlimit="10"/>
<path d="M-13.3949 398.738L-15.7539 400.592V477.429L35.3976 431.298L-13.3949 398.738Z" stroke="#E8C183" stroke-opacity="0.1" stroke-width="0.75" stroke-miterlimit="10"/>
<path d="M-15.7539 486.838V571.86L33.1892 531.053L-15.7539 486.838Z" stroke="#E8C183" stroke-opacity="0.1" stroke-width="0.75" stroke-miterlimit="10"/>
<path d="M35.241 632.148L37.2583 536.816L-11.9004 577.817L35.241 632.148Z" stroke="#E8C183" stroke-opacity="0.1" stroke-width="0.75" stroke-miterlimit="10"/>
<path d="M-14.6367 708.898V755.532L5.31552 732.027L-14.6367 708.898Z" stroke="#E8C183" stroke-opacity="0.1" stroke-width="0.75" stroke-miterlimit="10"/>
<path d="M33.9121 755.108V708.488L13.9727 731.986L33.9121 755.108Z" stroke="#E8C183" stroke-opacity="0.1" stroke-width="0.75" stroke-miterlimit="10"/>
<path d="M-10.4707 760.792H30.1243L9.66222 737.062L-10.4707 760.792Z" stroke="#E8C183" stroke-opacity="0.1" stroke-width="0.75" stroke-miterlimit="10"/>
<path d="M29.0286 647.814H-10.0938L9.6244 670.677L29.0286 647.814Z" stroke="#E8C183" stroke-opacity="0.1" stroke-width="0.75" stroke-miterlimit="10"/>
<path d="M-14.6367 652.629V699.263L5.31552 675.758L-14.6367 652.629Z" stroke="#E8C183" stroke-opacity="0.1" stroke-width="0.75" stroke-miterlimit="10"/>
<path d="M13.9727 675.72L33.9121 698.834V652.219L13.9727 675.72Z" stroke="#E8C183" stroke-opacity="0.1" stroke-width="0.75" stroke-miterlimit="10"/>
<path d="M9.66034 680.799L-10.4727 704.521L9.62321 726.944L30.1223 704.521L9.66034 680.799Z" stroke="#E8C183" stroke-opacity="0.1" stroke-width="0.75" stroke-miterlimit="10"/>
<path d="M40.3635 783.181V770.057H-78.5062V783.181H-85.457V796.99H47.3143V783.181H40.3635Z" stroke="#E8C183" stroke-opacity="0.1" stroke-width="0.75" stroke-miterlimit="10"/>
<path d="M14.7253 770.061H5.05859V787.93H14.7253V770.061Z" stroke="#E8C183" stroke-opacity="0.1" stroke-width="0.75" stroke-miterlimit="10"/>
<path d="M25.8441 770.061H16.1797V787.93H25.8441V770.061Z" stroke="#E8C183" stroke-opacity="0.1" stroke-width="0.75" stroke-miterlimit="10"/>
<path d="M560.798 772.315C560.798 780.539 555.387 787.214 548.725 787.214H548.667C541.993 787.214 536.594 780.539 536.594 772.315V752.477C536.594 744.246 541.993 737.572 548.667 737.572H548.725C555.387 737.572 560.798 744.246 560.798 752.477V772.315Z" stroke="#E8C183" stroke-opacity="0.1" stroke-width="0.75" stroke-miterlimit="10"/>
<path d="M555.131 766.42C555.293 766.233 555.293 765.914 555.142 765.714C554.98 765.519 554.725 765.512 554.574 765.705L549.094 772.233V766.272L555.131 759.084C555.293 758.891 555.293 758.58 555.142 758.378C554.98 758.178 554.725 758.178 554.574 758.364L549.094 764.89V754.775C549.094 754.502 548.909 754.277 548.688 754.277C548.468 754.277 548.295 754.502 548.295 754.775V764.89L542.826 758.364C542.652 758.178 542.397 758.178 542.246 758.378C542.096 758.58 542.096 758.891 542.258 759.084L548.295 766.272V772.233L542.826 765.705C542.663 765.512 542.409 765.519 542.258 765.714C542.096 765.914 542.107 766.233 542.269 766.42L548.295 773.615V779.567L542.826 773.041C542.663 772.855 542.409 772.862 542.258 773.057C542.107 773.257 542.107 773.569 542.269 773.762L548.295 780.946V796.497C548.295 796.771 548.48 796.994 548.7 796.994C548.92 796.994 549.106 796.771 549.106 796.497V780.946L555.142 773.762C555.304 773.569 555.304 773.257 555.154 773.057C554.992 772.862 554.737 772.855 554.574 773.041L549.106 779.567V773.615L555.131 766.42Z" fill="#424242"/>
<mask id="mask0_817_6188" style="mask-type:luminance" maskUnits="userSpaceOnUse" x="542" y="754" width="14" height="43">
<path d="M555.131 766.42C555.293 766.233 555.293 765.914 555.142 765.714C554.98 765.519 554.725 765.512 554.574 765.705L549.094 772.233V766.272L555.131 759.084C555.293 758.891 555.293 758.58 555.142 758.378C554.98 758.178 554.725 758.178 554.574 758.364L549.094 764.89V754.775C549.094 754.502 548.909 754.277 548.688 754.277C548.468 754.277 548.295 754.502 548.295 754.775V764.89L542.826 758.364C542.652 758.178 542.397 758.178 542.246 758.378C542.096 758.58 542.096 758.891 542.258 759.084L548.295 766.272V772.233L542.826 765.705C542.663 765.512 542.409 765.519 542.258 765.714C542.096 765.914 542.107 766.233 542.269 766.42L548.295 773.615V779.567L542.826 773.041C542.663 772.855 542.409 772.862 542.258 773.057C542.107 773.257 542.107 773.569 542.269 773.762L548.295 780.946V796.497C548.295 796.771 548.48 796.994 548.7 796.994C548.92 796.994 549.106 796.771 549.106 796.497V780.946L555.142 773.762C555.304 773.569 555.304 773.257 555.154 773.057C554.992 772.862 554.737 772.855 554.574 773.041L549.106 779.567V773.615L555.131 766.42Z" fill="white"/>
</mask>
<g mask="url(#mask0_817_6188)">
<path d="M555.131 766.421L554.332 765.38L554.32 765.393L555.131 766.421ZM555.143 765.714L555.977 764.733V764.723L555.966 764.713L555.143 765.714ZM554.575 765.706L555.375 766.736L555.386 766.727L554.575 765.706ZM549.095 772.233H547.936V775.603L549.906 773.262L549.095 772.233ZM549.095 766.272L548.295 765.242L547.936 765.664V766.272H549.095ZM555.131 759.085L555.931 760.115L555.942 760.106L555.131 759.085ZM554.575 758.364L553.776 757.323L553.764 757.334L554.575 758.364ZM549.095 764.89H547.936V768.26L549.906 765.919L549.095 764.89ZM548.295 764.89L547.484 765.919L549.454 768.263V764.89H548.295ZM542.826 758.364L543.626 757.336L543.614 757.324L543.603 757.313L542.826 758.364ZM542.247 758.379L543.093 759.361L543.104 759.35L542.247 758.379ZM542.259 759.085L541.447 760.106L541.459 760.113L542.259 759.085ZM548.295 766.272H549.454V765.664L549.095 765.244L548.295 766.272ZM548.295 772.233L547.484 773.262L549.454 775.605V772.233H548.295ZM542.826 765.706L543.626 764.679V764.676L542.826 765.706ZM542.259 765.714L541.424 764.723L541.413 764.733L542.259 765.714ZM542.27 766.421L543.07 765.391L543.058 765.38L542.27 766.421ZM548.295 773.615H549.454V773.009L549.106 772.587L548.295 773.615ZM548.295 779.568L547.496 780.596L549.454 782.94V779.568H548.295ZM542.826 773.042L543.637 772.013L543.626 772.002L543.614 771.992L542.826 773.042ZM542.259 773.057L541.424 772.066L541.413 772.075L542.259 773.057ZM542.27 773.762L541.459 774.784V774.792L542.27 773.762ZM548.295 780.947H549.454V780.339L549.106 779.917L548.295 780.947ZM549.106 780.947L548.295 779.917L547.948 780.339V780.947H549.106ZM555.143 773.762L555.942 774.792L555.954 774.784L555.143 773.762ZM555.154 773.057L555.989 772.075V772.065L555.977 772.056L555.154 773.057ZM554.575 773.042L553.787 772L553.776 772.013L554.575 773.042ZM549.106 779.568H547.948V782.938L549.906 780.596L549.106 779.568ZM549.106 773.615L548.295 772.587L547.948 773.009V773.615H549.106ZM555.919 767.461C556.568 766.705 556.556 765.48 555.977 764.733L554.297 766.696C554.031 766.351 554.007 765.761 554.332 765.38L555.919 767.461ZM555.966 764.713C555.375 763.965 554.378 763.929 553.764 764.686L555.386 766.727C555.073 767.096 554.598 767.076 554.309 766.716L555.966 764.713ZM553.764 764.677L548.295 771.204L549.906 773.262L555.375 766.736L553.764 764.677ZM550.253 772.233V766.272H547.936V772.233H550.253ZM549.906 767.302L555.931 760.115L554.32 758.055L548.295 765.242L549.906 767.302ZM555.942 760.106C556.556 759.358 556.568 758.157 555.977 757.397L554.297 759.361C554.019 759.003 554.019 758.424 554.32 758.064L555.942 760.106ZM555.977 757.397C555.363 756.593 554.378 756.622 553.776 757.323L555.363 759.404C555.085 759.733 554.598 759.762 554.297 759.361L555.977 757.397ZM553.764 757.334L548.295 763.861L549.906 765.919L555.375 759.393L553.764 757.334ZM550.253 764.89V754.776H547.936V764.89H550.253ZM550.253 754.776C550.253 753.713 549.558 752.848 548.689 752.848V755.708C548.272 755.708 547.936 755.292 547.936 754.776H550.253ZM548.689 752.848C547.832 752.848 547.137 753.713 547.137 754.776H549.454C549.454 755.292 549.106 755.708 548.689 755.708V752.848ZM547.137 754.776V764.89H549.454V754.776H547.137ZM549.095 763.862L543.626 757.336L542.015 759.393L547.484 765.919L549.095 763.862ZM543.603 757.313C543.012 756.636 542.027 756.579 541.401 757.407L543.104 759.35C542.78 759.776 542.305 759.719 542.038 759.414L543.603 757.313ZM541.413 757.397C540.833 758.157 540.833 759.358 541.447 760.106L543.07 758.064C543.371 758.424 543.371 759.003 543.093 759.361L541.413 757.397ZM541.459 760.113L547.484 767.3L549.095 765.244L543.07 758.057L541.459 760.113ZM547.137 766.272V772.233H549.454V766.272H547.137ZM549.095 771.205L543.626 764.679L542.015 766.734L547.484 773.262L549.095 771.205ZM543.626 764.676C543.012 763.944 542.027 763.951 541.424 764.723L543.093 766.705C542.792 767.09 542.316 767.083 542.015 766.737L543.626 764.676ZM541.413 764.733C540.845 765.48 540.822 766.705 541.471 767.461L543.058 765.38C543.394 765.761 543.359 766.351 543.093 766.696L541.413 764.733ZM541.459 767.449L547.496 774.644L549.106 772.587L543.07 765.391L541.459 767.449ZM547.137 773.615V779.568H549.454V773.615H547.137ZM549.106 778.54L543.637 772.013L542.027 774.07L547.496 780.596L549.106 778.54ZM543.614 771.992C543 771.29 542.027 771.297 541.424 772.066L543.093 774.047C542.792 774.43 542.328 774.422 542.038 774.091L543.614 771.992ZM541.413 772.075C540.833 772.834 540.833 774.037 541.459 774.784L543.081 772.741C543.382 773.102 543.371 773.682 543.104 774.038L541.413 772.075ZM541.459 774.792L547.496 781.975L549.106 779.917L543.07 772.734L541.459 774.792ZM547.137 780.947V796.498H549.454V780.947H547.137ZM547.137 796.498C547.137 797.561 547.843 798.425 548.701 798.425V795.564C549.118 795.564 549.454 795.98 549.454 796.498H547.137ZM548.701 798.425C549.558 798.425 550.265 797.561 550.265 796.498H547.948C547.948 795.982 548.284 795.564 548.701 795.564V798.425ZM550.265 796.498V780.947H547.948V796.498H550.265ZM549.906 781.976L555.942 774.792L554.332 772.734L548.295 779.917L549.906 781.976ZM555.954 774.784C556.568 774.037 556.568 772.834 555.989 772.075L554.309 774.038C554.031 773.681 554.031 773.102 554.332 772.741L555.954 774.784ZM555.977 772.056C555.386 771.311 554.413 771.275 553.787 772L555.375 774.083C555.073 774.436 554.61 774.416 554.32 774.058L555.977 772.056ZM553.776 772.013L548.295 778.54L549.906 780.596L555.386 774.07L553.776 772.013ZM550.265 779.568V773.615H547.948V779.568H550.265ZM549.906 774.644L555.931 767.448L554.32 765.393L548.295 772.587L549.906 774.644Z" fill="#E8C183" fill-opacity="0.1"/>
</g>
<path d="M149.183 772.315C149.183 780.539 143.776 787.214 137.111 787.214H137.053C130.384 787.214 124.98 780.539 124.98 772.315V752.477C124.98 744.246 130.384 737.572 137.053 737.572H137.111C143.776 737.572 149.183 744.246 149.183 752.477V772.315Z" stroke="#E8C183" stroke-opacity="0.1" stroke-width="0.75" stroke-miterlimit="10"/>
<path d="M143.518 766.42C143.678 766.233 143.681 765.914 143.527 765.714C143.373 765.519 143.118 765.512 142.958 765.705L137.484 772.233V766.272L143.518 759.084C143.678 758.891 143.681 758.58 143.527 758.378C143.373 758.178 143.118 758.178 142.958 758.364L137.484 764.89V754.775C137.484 754.502 137.302 754.277 137.08 754.277C136.859 754.277 136.677 754.502 136.677 754.775V764.89L131.209 758.364C131.046 758.178 130.791 758.178 130.641 758.378C130.486 758.58 130.49 758.891 130.65 759.084L136.681 766.272V772.233L131.212 765.705C131.049 765.512 130.793 765.519 130.643 765.714C130.489 765.914 130.492 766.233 130.652 766.42L136.684 773.615V779.567L131.215 773.041C131.052 772.855 130.797 772.862 130.646 773.057C130.492 773.257 130.496 773.569 130.656 773.762L136.686 780.946V796.497C136.686 796.771 136.868 796.994 137.09 796.994C137.311 796.994 137.493 796.771 137.493 796.497V780.946L143.527 773.762C143.687 773.569 143.691 773.257 143.536 773.057C143.382 772.862 143.127 772.855 142.968 773.041L137.493 779.567V773.615L143.518 766.42Z" fill="#424242"/>
<mask id="mask1_817_6188" style="mask-type:luminance" maskUnits="userSpaceOnUse" x="130" y="754" width="14" height="43">
<path d="M143.518 766.42C143.678 766.233 143.681 765.914 143.527 765.714C143.373 765.519 143.118 765.512 142.958 765.705L137.484 772.233V766.272L143.518 759.084C143.678 758.891 143.681 758.58 143.527 758.378C143.373 758.178 143.118 758.178 142.958 758.364L137.484 764.89V754.775C137.484 754.502 137.302 754.277 137.08 754.277C136.859 754.277 136.677 754.502 136.677 754.775V764.89L131.209 758.364C131.046 758.178 130.791 758.178 130.641 758.378C130.486 758.58 130.49 758.891 130.65 759.084L136.681 766.272V772.233L131.212 765.705C131.049 765.512 130.793 765.519 130.643 765.714C130.489 765.914 130.492 766.233 130.652 766.42L136.684 773.615V779.567L131.215 773.041C131.052 772.855 130.797 772.862 130.646 773.057C130.492 773.257 130.496 773.569 130.656 773.762L136.686 780.946V796.497C136.686 796.771 136.868 796.994 137.09 796.994C137.311 796.994 137.493 796.771 137.493 796.497V780.946L143.527 773.762C143.687 773.569 143.691 773.257 143.536 773.057C143.382 772.862 143.127 772.855 142.968 773.041L137.493 779.567V773.615L143.518 766.42Z" fill="white"/>
</mask>
<g mask="url(#mask1_817_6188)">
<path d="M143.517 766.421L142.722 765.38L142.712 765.393L143.517 766.421ZM143.526 765.714L144.368 764.733L144.362 764.723L144.353 764.713L143.526 765.714ZM142.957 765.706L143.762 766.736L143.768 766.727L142.957 765.706ZM137.483 772.233H136.324V775.603L138.288 773.262L137.483 772.233ZM137.483 766.272L136.678 765.242L136.324 765.664V766.272H137.483ZM143.517 759.085L144.321 760.115L144.328 760.106L143.517 759.085ZM142.957 758.364L142.162 757.323L142.152 757.334L142.957 758.364ZM137.483 764.89H136.324V768.26L138.288 765.919L137.483 764.89ZM136.676 764.89L135.871 765.919L137.835 768.263V764.89H136.676ZM131.208 758.364L132.014 757.336L132.004 757.324L131.995 757.313L131.208 758.364ZM130.639 758.379L131.482 759.361L131.49 759.35L130.639 758.379ZM130.649 759.085L129.836 760.106L129.843 760.113L130.649 759.085ZM136.68 766.272H137.838V765.664L137.485 765.244L136.68 766.272ZM136.68 772.233L135.874 773.262L137.838 775.605V772.233H136.68ZM131.211 765.706L132.016 764.679L132.015 764.676L131.211 765.706ZM130.642 765.714L129.806 764.723L129.799 764.733L130.642 765.714ZM130.651 766.421L131.456 765.391L131.446 765.38L130.651 766.421ZM136.683 773.615H137.842V773.009L137.488 772.587L136.683 773.615ZM136.683 779.568L135.878 780.596L137.842 782.94V779.568H136.683ZM131.214 773.042L132.019 772.013L132.01 772.002L132.001 771.992L131.214 773.042ZM130.645 773.057L129.81 772.066L129.803 772.075L130.645 773.057ZM130.654 773.762L129.843 774.784L129.85 774.792L130.654 773.762ZM136.685 780.947H137.844V780.339L137.491 779.917L136.685 780.947ZM137.492 780.947L136.688 779.917L136.333 780.339V780.947H137.492ZM143.526 773.762L144.33 774.792L144.337 774.784L143.526 773.762ZM143.535 773.057L144.378 772.075L144.371 772.065L144.363 772.056L143.535 773.057ZM142.966 773.042L142.172 772L142.161 772.013L142.966 773.042ZM137.492 779.568H136.333V782.938L138.297 780.596L137.492 779.568ZM137.492 773.615L136.686 772.587L136.333 773.009V773.615H137.492ZM144.312 767.461C144.961 766.705 144.94 765.48 144.368 764.733L142.684 766.696C142.42 766.351 142.393 765.761 142.722 765.38L144.312 767.461ZM144.353 764.713C143.759 763.965 142.771 763.929 142.146 764.686L143.768 766.727C143.464 767.096 142.985 767.076 142.699 766.716L144.353 764.713ZM142.152 764.677L136.677 771.204L138.288 773.262L143.762 766.736L142.152 764.677ZM138.641 772.233V766.272H136.324V772.233H138.641ZM138.287 767.302L144.321 760.115L142.713 758.055L136.678 765.242L138.287 767.302ZM144.328 760.106C144.945 759.358 144.949 758.157 144.368 757.397L142.684 759.361C142.41 759.003 142.408 758.424 142.706 758.064L144.328 760.106ZM144.368 757.397C143.754 756.593 142.765 756.622 142.162 757.323L143.752 759.404C143.469 759.733 142.99 759.762 142.684 759.361L144.368 757.397ZM142.152 757.334L136.677 763.861L138.288 765.919L143.762 759.393L142.152 757.334ZM138.641 764.89V754.776H136.324V764.89H138.641ZM138.641 754.776C138.641 753.713 137.941 752.848 137.079 752.848V755.708C136.661 755.708 136.324 755.292 136.324 754.776H138.641ZM137.079 752.848C136.218 752.848 135.517 753.713 135.517 754.776H137.835C137.835 755.292 137.498 755.708 137.079 755.708V752.848ZM135.517 754.776V764.89H137.835V754.776H135.517ZM137.481 763.862L132.014 757.336L130.403 759.393L135.871 765.919L137.481 763.862ZM131.995 757.313C131.401 756.636 130.409 756.579 129.788 757.407L131.49 759.35C131.17 759.776 130.689 759.719 130.422 759.414L131.995 757.313ZM129.796 757.397C129.215 758.157 129.22 759.358 129.836 760.106L131.46 758.064C131.756 758.424 131.754 759.003 131.482 759.361L129.796 757.397ZM129.843 760.113L135.875 767.3L137.485 765.244L131.453 758.057L129.843 760.113ZM135.521 766.272V772.233H137.838V766.272H135.521ZM137.485 771.205L132.016 764.679L130.405 766.734L135.874 773.262L137.485 771.205ZM132.015 764.676C131.397 763.944 130.408 763.951 129.806 764.723L131.477 766.705C131.177 767.09 130.699 767.083 130.408 766.737L132.015 764.676ZM129.799 764.733C129.228 765.48 129.208 766.707 129.856 767.461L131.446 765.38C131.775 765.761 131.748 766.351 131.485 766.696L129.799 764.733ZM129.846 767.449L135.878 774.644L137.488 772.587L131.456 765.391L129.846 767.449ZM135.524 773.615V779.568H137.842V773.615H135.524ZM137.488 778.54L132.019 772.013L130.409 774.07L135.878 780.596L137.488 778.54ZM132.001 771.992C131.386 771.29 130.409 771.297 129.81 772.066L131.481 774.047C131.183 774.43 130.717 774.422 130.427 774.091L132.001 771.992ZM129.803 772.075C129.222 772.834 129.226 774.037 129.843 774.784L131.466 772.741C131.763 773.102 131.761 773.682 131.488 774.038L129.803 772.075ZM129.85 774.792L135.881 781.975L137.491 779.917L131.459 772.734L129.85 774.792ZM135.527 780.947V796.498H137.844V780.947H135.527ZM135.527 796.498C135.527 797.561 136.228 798.425 137.089 798.425V795.564C137.507 795.564 137.844 795.98 137.844 796.498H135.527ZM137.089 798.425C137.951 798.425 138.65 797.561 138.65 796.498H136.333C136.333 795.98 136.67 795.564 137.089 795.564V798.425ZM138.65 796.498V780.947H136.333V796.498H138.65ZM138.296 781.976L144.33 774.792L142.722 772.734L136.688 779.917L138.296 781.976ZM144.337 774.784C144.955 774.037 144.958 772.834 144.378 772.075L142.693 774.038C142.42 773.681 142.417 773.102 142.715 772.741L144.337 774.784ZM144.363 772.056C143.771 771.311 142.795 771.275 142.172 772L143.761 774.083C143.458 774.436 142.992 774.416 142.708 774.058L144.363 772.056ZM142.161 772.013L136.686 778.54L138.297 780.596L143.772 774.07L142.161 772.013ZM138.65 779.568V773.615H136.333V779.568H138.65ZM138.297 774.644L144.322 767.448L142.712 765.393L136.686 772.587L138.297 774.644Z" fill="#E8C183" fill-opacity="0.1"/>
</g>
<path d="M582.788 772.315C582.788 780.539 577.377 787.214 570.715 787.214H570.657C563.983 787.214 558.584 780.539 558.584 772.315V752.477C558.584 744.246 563.983 737.572 570.657 737.572H570.715C577.377 737.572 582.788 744.246 582.788 752.477V772.315Z" stroke="#E8C183" stroke-opacity="0.1" stroke-width="0.75" stroke-miterlimit="10"/>
</svg>
